<?xml version="1.0" encoding="utf-8" standalone="no"?>
<!DOCTYPE svg PUBLIC "-//W3C//DTD SVG 1.1//EN"
  "http://www.w3.org/Graphics/SVG/1.1/DTD/svg11.dtd">
<svg xmlns:xlink="http://www.w3.org/1999/xlink" width="796.32pt" height="345.6pt" viewBox="0 0 796.32 345.6" xmlns="http://www.w3.org/2000/svg" version="1.1">
 <metadata>
  <rdf:RDF xmlns:dc="http://purl.org/dc/elements/1.1/" xmlns:cc="http://creativecommons.org/ns#" xmlns:rdf="http://www.w3.org/1999/02/22-rdf-syntax-ns#">
   <cc:Work>
    <dc:type rdf:resource="http://purl.org/dc/dcmitype/StillImage"/>
    <dc:date>2025-06-05T16:13:09.218724</dc:date>
    <dc:format>image/svg+xml</dc:format>
    <dc:creator>
     <cc:Agent>
      <dc:title>Matplotlib v3.10.3, https://matplotlib.org/</dc:title>
     </cc:Agent>
    </dc:creator>
   </cc:Work>
  </rdf:RDF>
 </metadata>
 <defs>
  <style type="text/css">*{stroke-linejoin: round; stroke-linecap: butt}</style>
 </defs>
 <g id="figure_1">
  <g id="patch_1">
   <path d="M 0 345.6 
L 796.32 345.6 
L 796.32 0 
L 0 0 
z
" style="fill: #ffffff"/>
  </g>
  <g id="axes_1">
   <g id="patch_2">
    <path d="M 118.549375 306.056 
L 245.408906 306.056 
L 245.408906 26.88 
L 118.549375 26.88 
z
" style="fill: #ffffff"/>
   </g>
   <g id="FillBetweenPolyCollection_1">
    <path d="M 145.473881 125.770206 
L 141.599836 125.770206 
L 141.458922 125.130516 
L 141.312603 124.490826 
L 141.159699 123.851136 
L 140.998661 123.211446 
L 140.827561 122.571756 
L 140.644091 121.932066 
L 140.445591 121.292376 
L 140.229088 120.652686 
L 139.991354 120.012996 
L 139.729002 119.373306 
L 139.438585 118.733616 
L 139.116732 118.093926 
L 138.760294 117.454236 
L 138.366501 116.814546 
L 137.933133 116.174856 
L 137.458675 115.535166 
L 136.942476 114.895476 
L 136.384876 114.255786 
L 135.787305 113.616096 
L 135.152349 112.976406 
L 134.483763 112.336716 
L 133.786435 111.697027 
L 133.066312 111.057337 
L 132.33026 110.417647 
L 131.58589 109.777957 
L 130.841351 109.138267 
L 130.105095 108.498577 
L 129.385626 107.858887 
L 128.691256 107.219197 
L 128.029872 106.579507 
L 127.408724 105.939817 
L 126.834248 105.300127 
L 126.31193 104.660437 
L 125.846209 104.020747 
L 125.440423 103.381057 
L 125.096798 102.741367 
L 124.816465 102.101677 
L 124.599513 101.461987 
L 124.445057 100.822297 
L 124.351317 100.182607 
L 124.315717 99.542917 
L 124.334971 98.903227 
L 124.405183 98.263537 
L 124.521935 97.623848 
L 124.680388 96.984158 
L 124.875373 96.344468 
L 125.10149 95.704778 
L 125.353216 95.065088 
L 125.62502 94.425398 
L 125.911478 93.785708 
L 126.207405 93.146018 
L 126.507978 92.506328 
L 126.808864 91.866638 
L 127.106333 91.226948 
L 127.397352 90.587258 
L 127.679665 89.947568 
L 127.951832 89.307878 
L 128.213233 88.668188 
L 128.464045 88.028498 
L 128.70517 87.388808 
L 128.938129 86.749118 
L 129.164934 86.109428 
L 129.387926 85.469738 
L 129.609613 84.830048 
L 129.832493 84.190358 
L 130.058895 83.550669 
L 130.290839 82.910979 
L 130.529915 82.271289 
L 130.777212 81.631599 
L 131.033273 80.991909 
L 131.298101 80.352219 
L 131.571197 79.712529 
L 131.851636 79.072839 
L 132.138175 78.433149 
L 132.429365 77.793459 
L 132.723689 77.153769 
L 133.019681 76.514079 
L 133.316048 75.874389 
L 133.611756 75.234699 
L 133.906104 74.595009 
L 134.198751 73.955319 
L 134.489729 73.315629 
L 134.779406 72.675939 
L 135.068437 72.036249 
L 135.357686 71.396559 
L 135.648137 70.756869 
L 135.940795 70.117179 
L 136.236589 69.47749 
L 136.536287 68.8378 
L 136.840419 68.19811 
L 137.149216 67.55842 
L 137.462582 66.91873 
L 137.780071 66.27904 
L 138.100895 65.63935 
L 138.423947 64.99966 
L 138.747846 64.35997 
L 139.070982 63.72028 
L 139.39158 63.08059 
L 139.707766 62.4409 
L 147.365951 62.4409 
L 147.365951 62.4409 
L 147.682137 63.08059 
L 148.002735 63.72028 
L 148.32587 64.35997 
L 148.649769 64.99966 
L 148.972822 65.63935 
L 149.293646 66.27904 
L 149.611134 66.91873 
L 149.9245 67.55842 
L 150.233298 68.19811 
L 150.537429 68.8378 
L 150.837128 69.47749 
L 151.132922 70.117179 
L 151.42558 70.756869 
L 151.716031 71.396559 
L 152.00528 72.036249 
L 152.294311 72.675939 
L 152.583988 73.315629 
L 152.874965 73.955319 
L 153.167613 74.595009 
L 153.46196 75.234699 
L 153.757669 75.874389 
L 154.054036 76.514079 
L 154.350028 77.153769 
L 154.644351 77.793459 
L 154.935542 78.433149 
L 155.22208 79.072839 
L 155.50252 79.712529 
L 155.775616 80.352219 
L 156.040443 80.991909 
L 156.296505 81.631599 
L 156.543802 82.271289 
L 156.782878 82.910979 
L 157.014821 83.550669 
L 157.241224 84.190358 
L 157.464104 84.830048 
L 157.685791 85.469738 
L 157.908783 86.109428 
L 158.135588 86.749118 
L 158.368547 87.388808 
L 158.609671 88.028498 
L 158.860484 88.668188 
L 159.121885 89.307878 
L 159.394051 89.947568 
L 159.676365 90.587258 
L 159.967384 91.226948 
L 160.264852 91.866638 
L 160.565739 92.506328 
L 160.866312 93.146018 
L 161.162239 93.785708 
L 161.448697 94.425398 
L 161.720501 95.065088 
L 161.972227 95.704778 
L 162.198344 96.344468 
L 162.393328 96.984158 
L 162.551782 97.623848 
L 162.668534 98.263537 
L 162.738745 98.903227 
L 162.757999 99.542917 
L 162.722399 100.182607 
L 162.62866 100.822297 
L 162.474203 101.461987 
L 162.257252 102.101677 
L 161.976919 102.741367 
L 161.633293 103.381057 
L 161.227507 104.020747 
L 160.761786 104.660437 
L 160.239468 105.300127 
L 159.664993 105.939817 
L 159.043845 106.579507 
L 158.382461 107.219197 
L 157.688091 107.858887 
L 156.968622 108.498577 
L 156.232365 109.138267 
L 155.487827 109.777957 
L 154.743457 110.417647 
L 154.007404 111.057337 
L 153.287281 111.697027 
L 152.589954 112.336716 
L 151.921367 112.976406 
L 151.286411 113.616096 
L 150.688841 114.255786 
L 150.131241 114.895476 
L 149.615042 115.535166 
L 149.140584 116.174856 
L 148.707215 116.814546 
L 148.313423 117.454236 
L 147.956985 118.093926 
L 147.635132 118.733616 
L 147.344715 119.373306 
L 147.082362 120.012996 
L 146.844629 120.652686 
L 146.628125 121.292376 
L 146.429626 121.932066 
L 146.246156 122.571756 
L 146.075055 123.211446 
L 145.914017 123.851136 
L 145.761114 124.490826 
L 145.614795 125.130516 
L 145.473881 125.770206 
z
" clip-path="url(#p55bbcadb53)" style="fill: #1f77b4; fill-opacity: 0.3"/>
   </g>
   <g id="FillBetweenPolyCollection_2">
    <path d="M 224.693307 210.919415 
L 216.149538 210.919415 
L 215.792621 209.607691 
L 215.424124 208.295967 
L 215.04424 206.984243 
L 214.652972 205.672519 
L 214.250139 204.360795 
L 213.835399 203.049071 
L 213.408297 201.737347 
L 212.968316 200.425623 
L 212.514952 199.113899 
L 212.047796 197.802175 
L 211.566618 196.490451 
L 211.071458 195.178727 
L 210.562705 193.867003 
L 210.04117 192.555279 
L 209.508142 191.243556 
L 208.965423 189.931832 
L 208.41534 188.620108 
L 207.860732 187.308384 
L 207.304912 185.99666 
L 206.751597 184.684936 
L 206.204825 183.373212 
L 205.668848 182.061488 
L 205.148014 180.749764 
L 204.646639 179.43804 
L 204.168884 178.126316 
L 203.718636 176.814592 
L 203.299398 175.502868 
L 202.914202 174.191144 
L 202.565538 172.87942 
L 202.255317 171.567697 
L 201.984844 170.255973 
L 201.754833 168.944249 
L 201.56543 167.632525 
L 201.416268 166.320801 
L 201.30653 165.009077 
L 201.235027 163.697353 
L 201.200281 162.385629 
L 201.200612 161.073905 
L 201.234219 159.762181 
L 201.299253 158.450457 
L 201.393885 157.138733 
L 201.516357 155.827009 
L 201.665016 154.515285 
L 201.838338 153.203562 
L 202.034936 151.891838 
L 202.253556 150.580114 
L 202.493056 149.26839 
L 202.752386 147.956666 
L 203.030559 146.644942 
L 203.326616 145.333218 
L 203.639599 144.021494 
L 203.968528 142.70977 
L 204.312375 141.398046 
L 204.670061 140.086322 
L 205.040448 138.774598 
L 205.422345 137.462874 
L 205.814522 136.15115 
L 206.215731 134.839426 
L 206.62472 133.527703 
L 207.040259 132.215979 
L 207.461158 130.904255 
L 207.886285 129.592531 
L 208.314568 128.280807 
L 208.745003 126.969083 
L 209.176645 125.657359 
L 209.608594 124.345635 
L 210.039981 123.033911 
L 210.469937 121.722187 
L 210.897575 120.410463 
L 211.321959 119.098739 
L 211.742088 117.787015 
L 212.156873 116.475291 
L 212.565128 115.163568 
L 212.965569 113.851844 
L 213.356817 112.54012 
L 213.73742 111.228396 
L 214.105871 109.916672 
L 214.460652 108.604948 
L 214.800269 107.293224 
L 215.123308 105.9815 
L 215.428486 104.669776 
L 215.714707 103.358052 
L 215.981119 102.046328 
L 216.227165 100.734604 
L 216.452628 99.42288 
L 216.657664 98.111156 
L 216.842825 96.799432 
L 217.00906 95.487709 
L 217.157708 94.175985 
L 217.290463 92.864261 
L 217.409325 91.552537 
L 217.516538 90.240813 
L 217.614504 88.929089 
L 217.705699 87.617365 
L 217.792573 86.305641 
L 217.877457 84.993917 
L 217.96247 83.682193 
L 218.049442 82.370469 
L 218.139843 81.058745 
L 222.703002 81.058745 
L 222.703002 81.058745 
L 222.793403 82.370469 
L 222.880374 83.682193 
L 222.965388 84.993917 
L 223.050272 86.305641 
L 223.137146 87.617365 
L 223.22834 88.929089 
L 223.326307 90.240813 
L 223.433519 91.552537 
L 223.552382 92.864261 
L 223.685137 94.175985 
L 223.833785 95.487709 
L 224.00002 96.799432 
L 224.185181 98.111156 
L 224.390217 99.42288 
L 224.61568 100.734604 
L 224.861726 102.046328 
L 225.128138 103.358052 
L 225.414359 104.669776 
L 225.719537 105.9815 
L 226.042576 107.293224 
L 226.382193 108.604948 
L 226.736974 109.916672 
L 227.105425 111.228396 
L 227.486028 112.54012 
L 227.877276 113.851844 
L 228.277717 115.163568 
L 228.685972 116.475291 
L 229.100757 117.787015 
L 229.520886 119.098739 
L 229.94527 120.410463 
L 230.372908 121.722187 
L 230.802864 123.033911 
L 231.234251 124.345635 
L 231.6662 125.657359 
L 232.097842 126.969083 
L 232.528277 128.280807 
L 232.95656 129.592531 
L 233.381687 130.904255 
L 233.802586 132.215979 
L 234.218125 133.527703 
L 234.627114 134.839426 
L 235.028322 136.15115 
L 235.4205 137.462874 
L 235.802397 138.774598 
L 236.172784 140.086322 
L 236.53047 141.398046 
L 236.874317 142.70977 
L 237.203246 144.021494 
L 237.516229 145.333218 
L 237.812286 146.644942 
L 238.090459 147.956666 
L 238.349789 149.26839 
L 238.589289 150.580114 
L 238.807908 151.891838 
L 239.004507 153.203562 
L 239.177829 154.515285 
L 239.326488 155.827009 
L 239.44896 157.138733 
L 239.543592 158.450457 
L 239.608626 159.762181 
L 239.642233 161.073905 
L 239.642563 162.385629 
L 239.607818 163.697353 
L 239.536314 165.009077 
L 239.426577 166.320801 
L 239.277415 167.632525 
L 239.088012 168.944249 
L 238.858001 170.255973 
L 238.587528 171.567697 
L 238.277307 172.87942 
L 237.928643 174.191144 
L 237.543447 175.502868 
L 237.124209 176.814592 
L 236.673961 178.126316 
L 236.196206 179.43804 
L 235.694831 180.749764 
L 235.173997 182.061488 
L 234.63802 183.373212 
L 234.091248 184.684936 
L 233.537933 185.99666 
L 232.982112 187.308384 
L 232.427505 188.620108 
L 231.877422 189.931832 
L 231.334703 191.243556 
L 230.801675 192.555279 
L 230.28014 193.867003 
L 229.771386 195.178727 
L 229.276226 196.490451 
L 228.795049 197.802175 
L 228.327893 199.113899 
L 227.874529 200.425623 
L 227.434547 201.737347 
L 227.007445 203.049071 
L 226.592706 204.360795 
L 226.189873 205.672519 
L 225.798605 206.984243 
L 225.418721 208.295967 
L 225.050224 209.607691 
L 224.693307 210.919415 
z
" clip-path="url(#p55bbcadb53)" style="fill: #1f77b4; fill-opacity: 0.3"/>
   </g>
   <g id="matplotlib.axis_1">
    <g id="xtick_1">
     <g id="line2d_1">
      <defs>
       <path id="m4fae44fcb8" d="M 0 0 
L 0 3.5 
" style="stroke: #000000; stroke-width: 0.8"/>
      </defs>
      <g>
       <use xlink:href="#m4fae44fcb8" x="143.536858" y="306.056" style="stroke: #000000; stroke-width: 0.8"/>
      </g>
     </g>
     <g id="text_1">
      <!-- DataConvert -->
      <g transform="translate(111.827483 320.654437) scale(0.1 -0.1)">
       <defs>
        <path id="DejaVuSans-44" d="M 1259 4147 
L 1259 519 
L 2022 519 
Q 2988 519 3436 956 
Q 3884 1394 3884 2338 
Q 3884 3275 3436 3711 
Q 2988 4147 2022 4147 
L 1259 4147 
z
M 628 4666 
L 1925 4666 
Q 3281 4666 3915 4102 
Q 4550 3538 4550 2338 
Q 4550 1131 3912 565 
Q 3275 0 1925 0 
L 628 0 
L 628 4666 
z
" transform="scale(0.015625)"/>
        <path id="DejaVuSans-61" d="M 2194 1759 
Q 1497 1759 1228 1600 
Q 959 1441 959 1056 
Q 959 750 1161 570 
Q 1363 391 1709 391 
Q 2188 391 2477 730 
Q 2766 1069 2766 1631 
L 2766 1759 
L 2194 1759 
z
M 3341 1997 
L 3341 0 
L 2766 0 
L 2766 531 
Q 2569 213 2275 61 
Q 1981 -91 1556 -91 
Q 1019 -91 701 211 
Q 384 513 384 1019 
Q 384 1609 779 1909 
Q 1175 2209 1959 2209 
L 2766 2209 
L 2766 2266 
Q 2766 2663 2505 2880 
Q 2244 3097 1772 3097 
Q 1472 3097 1187 3025 
Q 903 2953 641 2809 
L 641 3341 
Q 956 3463 1253 3523 
Q 1550 3584 1831 3584 
Q 2591 3584 2966 3190 
Q 3341 2797 3341 1997 
z
" transform="scale(0.015625)"/>
        <path id="DejaVuSans-74" d="M 1172 4494 
L 1172 3500 
L 2356 3500 
L 2356 3053 
L 1172 3053 
L 1172 1153 
Q 1172 725 1289 603 
Q 1406 481 1766 481 
L 2356 481 
L 2356 0 
L 1766 0 
Q 1100 0 847 248 
Q 594 497 594 1153 
L 594 3053 
L 172 3053 
L 172 3500 
L 594 3500 
L 594 4494 
L 1172 4494 
z
" transform="scale(0.015625)"/>
        <path id="DejaVuSans-43" d="M 4122 4306 
L 4122 3641 
Q 3803 3938 3442 4084 
Q 3081 4231 2675 4231 
Q 1875 4231 1450 3742 
Q 1025 3253 1025 2328 
Q 1025 1406 1450 917 
Q 1875 428 2675 428 
Q 3081 428 3442 575 
Q 3803 722 4122 1019 
L 4122 359 
Q 3791 134 3420 21 
Q 3050 -91 2638 -91 
Q 1578 -91 968 557 
Q 359 1206 359 2328 
Q 359 3453 968 4101 
Q 1578 4750 2638 4750 
Q 3056 4750 3426 4639 
Q 3797 4528 4122 4306 
z
" transform="scale(0.015625)"/>
        <path id="DejaVuSans-6f" d="M 1959 3097 
Q 1497 3097 1228 2736 
Q 959 2375 959 1747 
Q 959 1119 1226 758 
Q 1494 397 1959 397 
Q 2419 397 2687 759 
Q 2956 1122 2956 1747 
Q 2956 2369 2687 2733 
Q 2419 3097 1959 3097 
z
M 1959 3584 
Q 2709 3584 3137 3096 
Q 3566 2609 3566 1747 
Q 3566 888 3137 398 
Q 2709 -91 1959 -91 
Q 1206 -91 779 398 
Q 353 888 353 1747 
Q 353 2609 779 3096 
Q 1206 3584 1959 3584 
z
" transform="scale(0.015625)"/>
        <path id="DejaVuSans-6e" d="M 3513 2113 
L 3513 0 
L 2938 0 
L 2938 2094 
Q 2938 2591 2744 2837 
Q 2550 3084 2163 3084 
Q 1697 3084 1428 2787 
Q 1159 2491 1159 1978 
L 1159 0 
L 581 0 
L 581 3500 
L 1159 3500 
L 1159 2956 
Q 1366 3272 1645 3428 
Q 1925 3584 2291 3584 
Q 2894 3584 3203 3211 
Q 3513 2838 3513 2113 
z
" transform="scale(0.015625)"/>
        <path id="DejaVuSans-76" d="M 191 3500 
L 800 3500 
L 1894 563 
L 2988 3500 
L 3597 3500 
L 2284 0 
L 1503 0 
L 191 3500 
z
" transform="scale(0.015625)"/>
        <path id="DejaVuSans-65" d="M 3597 1894 
L 3597 1613 
L 953 1613 
Q 991 1019 1311 708 
Q 1631 397 2203 397 
Q 2534 397 2845 478 
Q 3156 559 3463 722 
L 3463 178 
Q 3153 47 2828 -22 
Q 2503 -91 2169 -91 
Q 1331 -91 842 396 
Q 353 884 353 1716 
Q 353 2575 817 3079 
Q 1281 3584 2069 3584 
Q 2775 3584 3186 3129 
Q 3597 2675 3597 1894 
z
M 3022 2063 
Q 3016 2534 2758 2815 
Q 2500 3097 2075 3097 
Q 1594 3097 1305 2825 
Q 1016 2553 972 2059 
L 3022 2063 
z
" transform="scale(0.015625)"/>
        <path id="DejaVuSans-72" d="M 2631 2963 
Q 2534 3019 2420 3045 
Q 2306 3072 2169 3072 
Q 1681 3072 1420 2755 
Q 1159 2438 1159 1844 
L 1159 0 
L 581 0 
L 581 3500 
L 1159 3500 
L 1159 2956 
Q 1341 3275 1631 3429 
Q 1922 3584 2338 3584 
Q 2397 3584 2469 3576 
Q 2541 3569 2628 3553 
L 2631 2963 
z
" transform="scale(0.015625)"/>
       </defs>
       <use xlink:href="#DejaVuSans-44"/>
       <use xlink:href="#DejaVuSans-61" transform="translate(77.001953 0)"/>
       <use xlink:href="#DejaVuSans-74" transform="translate(138.28125 0)"/>
       <use xlink:href="#DejaVuSans-61" transform="translate(177.490234 0)"/>
       <use xlink:href="#DejaVuSans-43" transform="translate(238.769531 0)"/>
       <use xlink:href="#DejaVuSans-6f" transform="translate(308.59375 0)"/>
       <use xlink:href="#DejaVuSans-6e" transform="translate(369.775391 0)"/>
       <use xlink:href="#DejaVuSans-76" transform="translate(433.154297 0)"/>
       <use xlink:href="#DejaVuSans-65" transform="translate(492.333984 0)"/>
       <use xlink:href="#DejaVuSans-72" transform="translate(553.857422 0)"/>
       <use xlink:href="#DejaVuSans-74" transform="translate(594.970703 0)"/>
      </g>
      <!-- (vendor) -->
      <g transform="translate(122.141546 331.85225) scale(0.1 -0.1)">
       <defs>
        <path id="DejaVuSans-28" d="M 1984 4856 
Q 1566 4138 1362 3434 
Q 1159 2731 1159 2009 
Q 1159 1288 1364 580 
Q 1569 -128 1984 -844 
L 1484 -844 
Q 1016 -109 783 600 
Q 550 1309 550 2009 
Q 550 2706 781 3412 
Q 1013 4119 1484 4856 
L 1984 4856 
z
" transform="scale(0.015625)"/>
        <path id="DejaVuSans-64" d="M 2906 2969 
L 2906 4863 
L 3481 4863 
L 3481 0 
L 2906 0 
L 2906 525 
Q 2725 213 2448 61 
Q 2172 -91 1784 -91 
Q 1150 -91 751 415 
Q 353 922 353 1747 
Q 353 2572 751 3078 
Q 1150 3584 1784 3584 
Q 2172 3584 2448 3432 
Q 2725 3281 2906 2969 
z
M 947 1747 
Q 947 1113 1208 752 
Q 1469 391 1925 391 
Q 2381 391 2643 752 
Q 2906 1113 2906 1747 
Q 2906 2381 2643 2742 
Q 2381 3103 1925 3103 
Q 1469 3103 1208 2742 
Q 947 2381 947 1747 
z
" transform="scale(0.015625)"/>
        <path id="DejaVuSans-29" d="M 513 4856 
L 1013 4856 
Q 1481 4119 1714 3412 
Q 1947 2706 1947 2009 
Q 1947 1309 1714 600 
Q 1481 -109 1013 -844 
L 513 -844 
Q 928 -128 1133 580 
Q 1338 1288 1338 2009 
Q 1338 2731 1133 3434 
Q 928 4138 513 4856 
z
" transform="scale(0.015625)"/>
       </defs>
       <use xlink:href="#DejaVuSans-28"/>
       <use xlink:href="#DejaVuSans-76" transform="translate(39.013672 0)"/>
       <use xlink:href="#DejaVuSans-65" transform="translate(98.193359 0)"/>
       <use xlink:href="#DejaVuSans-6e" transform="translate(159.716797 0)"/>
       <use xlink:href="#DejaVuSans-64" transform="translate(223.095703 0)"/>
       <use xlink:href="#DejaVuSans-6f" transform="translate(286.572266 0)"/>
       <use xlink:href="#DejaVuSans-72" transform="translate(347.753906 0)"/>
       <use xlink:href="#DejaVuSans-29" transform="translate(388.867188 0)"/>
      </g>
     </g>
    </g>
    <g id="xtick_2">
     <g id="line2d_2">
      <g>
       <use xlink:href="#m4fae44fcb8" x="220.421422" y="306.056" style="stroke: #000000; stroke-width: 0.8"/>
      </g>
     </g>
     <g id="text_2">
      <!-- Manual cal. -->
      <g transform="translate(191.872204 320.654437) scale(0.1 -0.1)">
       <defs>
        <path id="DejaVuSans-4d" d="M 628 4666 
L 1569 4666 
L 2759 1491 
L 3956 4666 
L 4897 4666 
L 4897 0 
L 4281 0 
L 4281 4097 
L 3078 897 
L 2444 897 
L 1241 4097 
L 1241 0 
L 628 0 
L 628 4666 
z
" transform="scale(0.015625)"/>
        <path id="DejaVuSans-75" d="M 544 1381 
L 544 3500 
L 1119 3500 
L 1119 1403 
Q 1119 906 1312 657 
Q 1506 409 1894 409 
Q 2359 409 2629 706 
Q 2900 1003 2900 1516 
L 2900 3500 
L 3475 3500 
L 3475 0 
L 2900 0 
L 2900 538 
Q 2691 219 2414 64 
Q 2138 -91 1772 -91 
Q 1169 -91 856 284 
Q 544 659 544 1381 
z
M 1991 3584 
L 1991 3584 
z
" transform="scale(0.015625)"/>
        <path id="DejaVuSans-6c" d="M 603 4863 
L 1178 4863 
L 1178 0 
L 603 0 
L 603 4863 
z
" transform="scale(0.015625)"/>
        <path id="DejaVuSans-20" transform="scale(0.015625)"/>
        <path id="DejaVuSans-63" d="M 3122 3366 
L 3122 2828 
Q 2878 2963 2633 3030 
Q 2388 3097 2138 3097 
Q 1578 3097 1268 2742 
Q 959 2388 959 1747 
Q 959 1106 1268 751 
Q 1578 397 2138 397 
Q 2388 397 2633 464 
Q 2878 531 3122 666 
L 3122 134 
Q 2881 22 2623 -34 
Q 2366 -91 2075 -91 
Q 1284 -91 818 406 
Q 353 903 353 1747 
Q 353 2603 823 3093 
Q 1294 3584 2113 3584 
Q 2378 3584 2631 3529 
Q 2884 3475 3122 3366 
z
" transform="scale(0.015625)"/>
        <path id="DejaVuSans-2e" d="M 684 794 
L 1344 794 
L 1344 0 
L 684 0 
L 684 794 
z
" transform="scale(0.015625)"/>
       </defs>
       <use xlink:href="#DejaVuSans-4d"/>
       <use xlink:href="#DejaVuSans-61" transform="translate(86.279297 0)"/>
       <use xlink:href="#DejaVuSans-6e" transform="translate(147.558594 0)"/>
       <use xlink:href="#DejaVuSans-75" transform="translate(210.9375 0)"/>
       <use xlink:href="#DejaVuSans-61" transform="translate(274.316406 0)"/>
       <use xlink:href="#DejaVuSans-6c" transform="translate(335.595703 0)"/>
       <use xlink:href="#DejaVuSans-20" transform="translate(363.378906 0)"/>
       <use xlink:href="#DejaVuSans-63" transform="translate(395.166016 0)"/>
       <use xlink:href="#DejaVuSans-61" transform="translate(450.146484 0)"/>
       <use xlink:href="#DejaVuSans-6c" transform="translate(511.425781 0)"/>
       <use xlink:href="#DejaVuSans-2e" transform="translate(539.208984 0)"/>
      </g>
      <!-- (this tool) -->
      <g transform="translate(196.340172 331.85225) scale(0.1 -0.1)">
       <defs>
        <path id="DejaVuSans-68" d="M 3513 2113 
L 3513 0 
L 2938 0 
L 2938 2094 
Q 2938 2591 2744 2837 
Q 2550 3084 2163 3084 
Q 1697 3084 1428 2787 
Q 1159 2491 1159 1978 
L 1159 0 
L 581 0 
L 581 4863 
L 1159 4863 
L 1159 2956 
Q 1366 3272 1645 3428 
Q 1925 3584 2291 3584 
Q 2894 3584 3203 3211 
Q 3513 2838 3513 2113 
z
" transform="scale(0.015625)"/>
        <path id="DejaVuSans-69" d="M 603 3500 
L 1178 3500 
L 1178 0 
L 603 0 
L 603 3500 
z
M 603 4863 
L 1178 4863 
L 1178 4134 
L 603 4134 
L 603 4863 
z
" transform="scale(0.015625)"/>
        <path id="DejaVuSans-73" d="M 2834 3397 
L 2834 2853 
Q 2591 2978 2328 3040 
Q 2066 3103 1784 3103 
Q 1356 3103 1142 2972 
Q 928 2841 928 2578 
Q 928 2378 1081 2264 
Q 1234 2150 1697 2047 
L 1894 2003 
Q 2506 1872 2764 1633 
Q 3022 1394 3022 966 
Q 3022 478 2636 193 
Q 2250 -91 1575 -91 
Q 1294 -91 989 -36 
Q 684 19 347 128 
L 347 722 
Q 666 556 975 473 
Q 1284 391 1588 391 
Q 1994 391 2212 530 
Q 2431 669 2431 922 
Q 2431 1156 2273 1281 
Q 2116 1406 1581 1522 
L 1381 1569 
Q 847 1681 609 1914 
Q 372 2147 372 2553 
Q 372 3047 722 3315 
Q 1072 3584 1716 3584 
Q 2034 3584 2315 3537 
Q 2597 3491 2834 3397 
z
" transform="scale(0.015625)"/>
       </defs>
       <use xlink:href="#DejaVuSans-28"/>
       <use xlink:href="#DejaVuSans-74" transform="translate(39.013672 0)"/>
       <use xlink:href="#DejaVuSans-68" transform="translate(78.222656 0)"/>
       <use xlink:href="#DejaVuSans-69" transform="translate(141.601562 0)"/>
       <use xlink:href="#DejaVuSans-73" transform="translate(169.384766 0)"/>
       <use xlink:href="#DejaVuSans-20" transform="translate(221.484375 0)"/>
       <use xlink:href="#DejaVuSans-74" transform="translate(253.271484 0)"/>
       <use xlink:href="#DejaVuSans-6f" transform="translate(292.480469 0)"/>
       <use xlink:href="#DejaVuSans-6f" transform="translate(353.662109 0)"/>
       <use xlink:href="#DejaVuSans-6c" transform="translate(414.84375 0)"/>
       <use xlink:href="#DejaVuSans-29" transform="translate(442.626953 0)"/>
      </g>
     </g>
    </g>
   </g>
   <g id="matplotlib.axis_2">
    <g id="ytick_1">
     <g id="line2d_3">
      <defs>
       <path id="mbef438dcb1" d="M 0 0 
L -3.5 0 
" style="stroke: #000000; stroke-width: 0.8"/>
      </defs>
      <g>
       <use xlink:href="#mbef438dcb1" x="118.549375" y="275.069757" style="stroke: #000000; stroke-width: 0.8"/>
      </g>
     </g>
     <g id="text_3">
      <!-- −0.004 -->
      <g transform="translate(74.541563 278.868976) scale(0.1 -0.1)">
       <defs>
        <path id="DejaVuSans-2212" d="M 678 2272 
L 4684 2272 
L 4684 1741 
L 678 1741 
L 678 2272 
z
" transform="scale(0.015625)"/>
        <path id="DejaVuSans-30" d="M 2034 4250 
Q 1547 4250 1301 3770 
Q 1056 3291 1056 2328 
Q 1056 1369 1301 889 
Q 1547 409 2034 409 
Q 2525 409 2770 889 
Q 3016 1369 3016 2328 
Q 3016 3291 2770 3770 
Q 2525 4250 2034 4250 
z
M 2034 4750 
Q 2819 4750 3233 4129 
Q 3647 3509 3647 2328 
Q 3647 1150 3233 529 
Q 2819 -91 2034 -91 
Q 1250 -91 836 529 
Q 422 1150 422 2328 
Q 422 3509 836 4129 
Q 1250 4750 2034 4750 
z
" transform="scale(0.015625)"/>
        <path id="DejaVuSans-34" d="M 2419 4116 
L 825 1625 
L 2419 1625 
L 2419 4116 
z
M 2253 4666 
L 3047 4666 
L 3047 1625 
L 3713 1625 
L 3713 1100 
L 3047 1100 
L 3047 0 
L 2419 0 
L 2419 1100 
L 313 1100 
L 313 1709 
L 2253 4666 
z
" transform="scale(0.015625)"/>
       </defs>
       <use xlink:href="#DejaVuSans-2212"/>
       <use xlink:href="#DejaVuSans-30" transform="translate(83.789062 0)"/>
       <use xlink:href="#DejaVuSans-2e" transform="translate(147.412109 0)"/>
       <use xlink:href="#DejaVuSans-30" transform="translate(179.199219 0)"/>
       <use xlink:href="#DejaVuSans-30" transform="translate(242.822266 0)"/>
       <use xlink:href="#DejaVuSans-34" transform="translate(306.445312 0)"/>
      </g>
     </g>
    </g>
    <g id="ytick_2">
     <g id="line2d_4">
      <g>
       <use xlink:href="#mbef438dcb1" x="118.549375" y="220.768878" style="stroke: #000000; stroke-width: 0.8"/>
      </g>
     </g>
     <g id="text_4">
      <!-- −0.002 -->
      <g transform="translate(74.541563 224.568097) scale(0.1 -0.1)">
       <defs>
        <path id="DejaVuSans-32" d="M 1228 531 
L 3431 531 
L 3431 0 
L 469 0 
L 469 531 
Q 828 903 1448 1529 
Q 2069 2156 2228 2338 
Q 2531 2678 2651 2914 
Q 2772 3150 2772 3378 
Q 2772 3750 2511 3984 
Q 2250 4219 1831 4219 
Q 1534 4219 1204 4116 
Q 875 4013 500 3803 
L 500 4441 
Q 881 4594 1212 4672 
Q 1544 4750 1819 4750 
Q 2544 4750 2975 4387 
Q 3406 4025 3406 3419 
Q 3406 3131 3298 2873 
Q 3191 2616 2906 2266 
Q 2828 2175 2409 1742 
Q 1991 1309 1228 531 
z
" transform="scale(0.015625)"/>
       </defs>
       <use xlink:href="#DejaVuSans-2212"/>
       <use xlink:href="#DejaVuSans-30" transform="translate(83.789062 0)"/>
       <use xlink:href="#DejaVuSans-2e" transform="translate(147.412109 0)"/>
       <use xlink:href="#DejaVuSans-30" transform="translate(179.199219 0)"/>
       <use xlink:href="#DejaVuSans-30" transform="translate(242.822266 0)"/>
       <use xlink:href="#DejaVuSans-32" transform="translate(306.445312 0)"/>
      </g>
     </g>
    </g>
    <g id="ytick_3">
     <g id="line2d_5">
      <g>
       <use xlink:href="#mbef438dcb1" x="118.549375" y="166.468" style="stroke: #000000; stroke-width: 0.8"/>
      </g>
     </g>
     <g id="text_5">
      <!-- 0.000 -->
      <g transform="translate(82.92125 170.267219) scale(0.1 -0.1)">
       <use xlink:href="#DejaVuSans-30"/>
       <use xlink:href="#DejaVuSans-2e" transform="translate(63.623047 0)"/>
       <use xlink:href="#DejaVuSans-30" transform="translate(95.410156 0)"/>
       <use xlink:href="#DejaVuSans-30" transform="translate(159.033203 0)"/>
       <use xlink:href="#DejaVuSans-30" transform="translate(222.65625 0)"/>
      </g>
     </g>
    </g>
    <g id="ytick_4">
     <g id="line2d_6">
      <g>
       <use xlink:href="#mbef438dcb1" x="118.549375" y="112.167122" style="stroke: #000000; stroke-width: 0.8"/>
      </g>
     </g>
     <g id="text_6">
      <!-- 0.002 -->
      <g transform="translate(82.92125 115.96634) scale(0.1 -0.1)">
       <use xlink:href="#DejaVuSans-30"/>
       <use xlink:href="#DejaVuSans-2e" transform="translate(63.623047 0)"/>
       <use xlink:href="#DejaVuSans-30" transform="translate(95.410156 0)"/>
       <use xlink:href="#DejaVuSans-30" transform="translate(159.033203 0)"/>
       <use xlink:href="#DejaVuSans-32" transform="translate(222.65625 0)"/>
      </g>
     </g>
    </g>
    <g id="ytick_5">
     <g id="line2d_7">
      <g>
       <use xlink:href="#mbef438dcb1" x="118.549375" y="57.866243" style="stroke: #000000; stroke-width: 0.8"/>
      </g>
     </g>
     <g id="text_7">
      <!-- 0.004 -->
      <g transform="translate(82.92125 61.665462) scale(0.1 -0.1)">
       <use xlink:href="#DejaVuSans-30"/>
       <use xlink:href="#DejaVuSans-2e" transform="translate(63.623047 0)"/>
       <use xlink:href="#DejaVuSans-30" transform="translate(95.410156 0)"/>
       <use xlink:href="#DejaVuSans-30" transform="translate(159.033203 0)"/>
       <use xlink:href="#DejaVuSans-34" transform="translate(222.65625 0)"/>
      </g>
     </g>
    </g>
    <g id="text_8">
     <!-- Mass error (Da) -->
     <g transform="translate(68.461875 205.151594) rotate(-90) scale(0.1 -0.1)">
      <use xlink:href="#DejaVuSans-4d"/>
      <use xlink:href="#DejaVuSans-61" transform="translate(86.279297 0)"/>
      <use xlink:href="#DejaVuSans-73" transform="translate(147.558594 0)"/>
      <use xlink:href="#DejaVuSans-73" transform="translate(199.658203 0)"/>
      <use xlink:href="#DejaVuSans-20" transform="translate(251.757812 0)"/>
      <use xlink:href="#DejaVuSans-65" transform="translate(283.544922 0)"/>
      <use xlink:href="#DejaVuSans-72" transform="translate(345.068359 0)"/>
      <use xlink:href="#DejaVuSans-72" transform="translate(384.431641 0)"/>
      <use xlink:href="#DejaVuSans-6f" transform="translate(423.294922 0)"/>
      <use xlink:href="#DejaVuSans-72" transform="translate(484.476562 0)"/>
      <use xlink:href="#DejaVuSans-20" transform="translate(525.589844 0)"/>
      <use xlink:href="#DejaVuSans-28" transform="translate(557.376953 0)"/>
      <use xlink:href="#DejaVuSans-44" transform="translate(596.390625 0)"/>
      <use xlink:href="#DejaVuSans-61" transform="translate(673.392578 0)"/>
      <use xlink:href="#DejaVuSans-29" transform="translate(734.671875 0)"/>
     </g>
    </g>
   </g>
   <g id="LineCollection_1">
    <path d="M 133.926288 92.955157 
L 153.147429 92.955157 
" clip-path="url(#p55bbcadb53)" style="fill: none; stroke: #1f77b4; stroke-width: 1.5"/>
    <path d="M 210.810852 154.690275 
L 230.031993 154.690275 
" clip-path="url(#p55bbcadb53)" style="fill: none; stroke: #1f77b4; stroke-width: 1.5"/>
   </g>
   <g id="LineCollection_2">
    <path d="M 133.926288 62.4409 
L 153.147429 62.4409 
" clip-path="url(#p55bbcadb53)" style="fill: none; stroke: #1f77b4; stroke-width: 1.5"/>
    <path d="M 210.810852 81.058745 
L 230.031993 81.058745 
" clip-path="url(#p55bbcadb53)" style="fill: none; stroke: #1f77b4; stroke-width: 1.5"/>
   </g>
   <g id="LineCollection_3">
    <path d="M 133.926288 125.770206 
L 153.147429 125.770206 
" clip-path="url(#p55bbcadb53)" style="fill: none; stroke: #1f77b4; stroke-width: 1.5"/>
    <path d="M 210.810852 210.919415 
L 230.031993 210.919415 
" clip-path="url(#p55bbcadb53)" style="fill: none; stroke: #1f77b4; stroke-width: 1.5"/>
   </g>
   <g id="LineCollection_4">
    <path d="M 143.536858 125.770206 
L 143.536858 62.4409 
" clip-path="url(#p55bbcadb53)" style="fill: none; stroke: #1f77b4; stroke-width: 1.5"/>
    <path d="M 220.421422 210.919415 
L 220.421422 81.058745 
" clip-path="url(#p55bbcadb53)" style="fill: none; stroke: #1f77b4; stroke-width: 1.5"/>
   </g>
   <g id="line2d_8">
    <path d="M 118.549375 166.468 
L 245.408906 166.468 
" clip-path="url(#p55bbcadb53)" style="fill: none; stroke: #1f77b4; stroke-width: 1.5; stroke-linecap: square"/>
   </g>
   <g id="line2d_9">
    <path d="M 118.549375 226.291429 
L 245.408906 226.291429 
" clip-path="url(#p55bbcadb53)" style="fill: none; stroke-dasharray: 3.7,1.6; stroke-dashoffset: 0; stroke: #808080"/>
   </g>
   <g id="line2d_10">
    <path d="M 118.549375 206.350286 
L 245.408906 206.350286 
" clip-path="url(#p55bbcadb53)" style="fill: none; stroke-dasharray: 3.7,1.6; stroke-dashoffset: 0; stroke: #808080"/>
   </g>
   <g id="line2d_11">
    <path d="M 118.549375 186.409143 
L 245.408906 186.409143 
" clip-path="url(#p55bbcadb53)" style="fill: none; stroke-dasharray: 3.7,1.6; stroke-dashoffset: 0; stroke: #808080"/>
   </g>
   <g id="line2d_12">
    <path d="M 118.549375 146.526857 
L 245.408906 146.526857 
" clip-path="url(#p55bbcadb53)" style="fill: none; stroke-dasharray: 3.7,1.6; stroke-dashoffset: 0; stroke: #808080"/>
   </g>
   <g id="line2d_13">
    <path d="M 118.549375 126.585714 
L 245.408906 126.585714 
" clip-path="url(#p55bbcadb53)" style="fill: none; stroke-dasharray: 3.7,1.6; stroke-dashoffset: 0; stroke: #808080"/>
   </g>
   <g id="line2d_14">
    <path d="M 118.549375 106.644571 
L 245.408906 106.644571 
" clip-path="url(#p55bbcadb53)" style="fill: none; stroke-dasharray: 3.7,1.6; stroke-dashoffset: 0; stroke: #808080"/>
   </g>
   <g id="patch_3">
    <path d="M 118.549375 306.056 
L 118.549375 26.88 
" style="fill: none; stroke: #000000; stroke-width: 0.8; stroke-linejoin: miter; stroke-linecap: square"/>
   </g>
   <g id="patch_4">
    <path d="M 245.408906 306.056 
L 245.408906 26.88 
" style="fill: none; stroke: #000000; stroke-width: 0.8; stroke-linejoin: miter; stroke-linecap: square"/>
   </g>
   <g id="patch_5">
    <path d="M 118.549375 306.056 
L 245.408906 306.056 
" style="fill: none; stroke: #000000; stroke-width: 0.8; stroke-linejoin: miter; stroke-linecap: square"/>
   </g>
   <g id="patch_6">
    <path d="M 118.549375 26.88 
L 245.408906 26.88 
" style="fill: none; stroke: #000000; stroke-width: 0.8; stroke-linejoin: miter; stroke-linecap: square"/>
   </g>
   <g id="text_9">
    <!-- Erythromycin -->
    <g transform="translate(141.848515 20.88) scale(0.12 -0.12)">
     <defs>
      <path id="DejaVuSans-45" d="M 628 4666 
L 3578 4666 
L 3578 4134 
L 1259 4134 
L 1259 2753 
L 3481 2753 
L 3481 2222 
L 1259 2222 
L 1259 531 
L 3634 531 
L 3634 0 
L 628 0 
L 628 4666 
z
" transform="scale(0.015625)"/>
      <path id="DejaVuSans-79" d="M 2059 -325 
Q 1816 -950 1584 -1140 
Q 1353 -1331 966 -1331 
L 506 -1331 
L 506 -850 
L 844 -850 
Q 1081 -850 1212 -737 
Q 1344 -625 1503 -206 
L 1606 56 
L 191 3500 
L 800 3500 
L 1894 763 
L 2988 3500 
L 3597 3500 
L 2059 -325 
z
" transform="scale(0.015625)"/>
      <path id="DejaVuSans-6d" d="M 3328 2828 
Q 3544 3216 3844 3400 
Q 4144 3584 4550 3584 
Q 5097 3584 5394 3201 
Q 5691 2819 5691 2113 
L 5691 0 
L 5113 0 
L 5113 2094 
Q 5113 2597 4934 2840 
Q 4756 3084 4391 3084 
Q 3944 3084 3684 2787 
Q 3425 2491 3425 1978 
L 3425 0 
L 2847 0 
L 2847 2094 
Q 2847 2600 2669 2842 
Q 2491 3084 2119 3084 
Q 1678 3084 1418 2786 
Q 1159 2488 1159 1978 
L 1159 0 
L 581 0 
L 581 3500 
L 1159 3500 
L 1159 2956 
Q 1356 3278 1631 3431 
Q 1906 3584 2284 3584 
Q 2666 3584 2933 3390 
Q 3200 3197 3328 2828 
z
" transform="scale(0.015625)"/>
     </defs>
     <use xlink:href="#DejaVuSans-45"/>
     <use xlink:href="#DejaVuSans-72" transform="translate(63.183594 0)"/>
     <use xlink:href="#DejaVuSans-79" transform="translate(104.296875 0)"/>
     <use xlink:href="#DejaVuSans-74" transform="translate(163.476562 0)"/>
     <use xlink:href="#DejaVuSans-68" transform="translate(202.685547 0)"/>
     <use xlink:href="#DejaVuSans-72" transform="translate(266.064453 0)"/>
     <use xlink:href="#DejaVuSans-6f" transform="translate(304.927734 0)"/>
     <use xlink:href="#DejaVuSans-6d" transform="translate(366.109375 0)"/>
     <use xlink:href="#DejaVuSans-79" transform="translate(463.521484 0)"/>
     <use xlink:href="#DejaVuSans-63" transform="translate(522.701172 0)"/>
     <use xlink:href="#DejaVuSans-69" transform="translate(577.681641 0)"/>
     <use xlink:href="#DejaVuSans-6e" transform="translate(605.464844 0)"/>
    </g>
   </g>
  </g>
  <g id="axes_2">
   <g id="patch_7">
    <path d="M 377.819969 306.056 
L 504.679499 306.056 
L 504.679499 26.88 
L 377.819969 26.88 
z
" style="fill: #ffffff"/>
   </g>
   <g id="FillBetweenPolyCollection_3">
    <path d="M 408.59307 157.284765 
L 397.021834 157.284765 
L 396.615445 156.785412 
L 396.203167 156.286059 
L 395.786556 155.786706 
L 395.367176 155.287354 
L 394.946597 154.788001 
L 394.526388 154.288648 
L 394.108117 153.789295 
L 393.693352 153.289942 
L 393.283662 152.79059 
L 392.880622 152.291237 
L 392.485807 151.791884 
L 392.100799 151.292531 
L 391.727176 150.793178 
L 391.366508 150.293825 
L 391.02034 149.794473 
L 390.690178 149.29512 
L 390.377462 148.795767 
L 390.083539 148.296414 
L 389.809625 147.797061 
L 389.55677 147.297708 
L 389.325812 146.798356 
L 389.117336 146.299003 
L 388.931625 145.79965 
L 388.76862 145.300297 
L 388.627882 144.800944 
L 388.508555 144.301592 
L 388.409348 143.802239 
L 388.328518 143.302886 
L 388.263874 142.803533 
L 388.212789 142.30418 
L 388.172236 141.804827 
L 388.138832 141.305475 
L 388.108907 140.806122 
L 388.078584 140.306769 
L 388.043873 139.807416 
L 388.000785 139.308063 
L 387.945446 138.80871 
L 387.874227 138.309358 
L 387.783871 137.810005 
L 387.671622 137.310652 
L 387.535347 136.811299 
L 387.373651 136.311946 
L 387.185972 135.812593 
L 386.972661 135.313241 
L 386.73504 134.813888 
L 386.47543 134.314535 
L 386.197151 133.815182 
L 385.904491 133.315829 
L 385.602639 132.816477 
L 385.297591 132.317124 
L 384.996016 131.817771 
L 384.7051 131.318418 
L 384.432361 130.819065 
L 384.18544 130.319712 
L 383.971886 129.82036 
L 383.798923 129.321007 
L 383.673229 128.821654 
L 383.600712 128.322301 
L 383.586311 127.822948 
L 383.633822 127.323595 
L 383.745751 126.824243 
L 383.92321 126.32489 
L 384.165858 125.825537 
L 384.471884 125.326184 
L 384.83804 124.826831 
L 385.259725 124.327479 
L 385.73111 123.828126 
L 386.245303 123.328773 
L 386.794553 122.82942 
L 387.370481 122.330067 
L 387.964321 121.830714 
L 388.567188 121.331362 
L 389.17033 120.832009 
L 389.765381 120.332656 
L 390.344598 119.833303 
L 390.901064 119.33395 
L 391.428872 118.834597 
L 391.923259 118.335245 
L 392.38071 117.835892 
L 392.79901 117.336539 
L 393.177254 116.837186 
L 393.515818 116.337833 
L 393.81628 115.83848 
L 394.08131 115.339128 
L 394.314523 114.839775 
L 394.52031 114.340422 
L 394.703641 113.841069 
L 394.869871 113.341716 
L 395.024523 112.842364 
L 395.173086 112.343011 
L 395.320823 111.843658 
L 395.472593 111.344305 
L 395.632698 110.844952 
L 395.80476 110.345599 
L 395.991625 109.846247 
L 396.195307 109.346894 
L 396.416961 108.847541 
L 396.656892 108.348188 
L 396.914598 107.848835 
L 408.700306 107.848835 
L 408.700306 107.848835 
L 408.958012 108.348188 
L 409.197944 108.847541 
L 409.419597 109.346894 
L 409.623279 109.846247 
L 409.810144 110.345599 
L 409.982206 110.844952 
L 410.142312 111.344305 
L 410.294082 111.843658 
L 410.441819 112.343011 
L 410.590381 112.842364 
L 410.745033 113.341716 
L 410.911263 113.841069 
L 411.094595 114.340422 
L 411.300381 114.839775 
L 411.533594 115.339128 
L 411.798624 115.83848 
L 412.099086 116.337833 
L 412.43765 116.837186 
L 412.815895 117.336539 
L 413.234194 117.835892 
L 413.691645 118.335245 
L 414.186032 118.834597 
L 414.71384 119.33395 
L 415.270306 119.833303 
L 415.849523 120.332656 
L 416.444575 120.832009 
L 417.047716 121.331362 
L 417.650583 121.830714 
L 418.244424 122.330067 
L 418.820351 122.82942 
L 419.369601 123.328773 
L 419.883794 123.828126 
L 420.355179 124.327479 
L 420.776864 124.826831 
L 421.14302 125.326184 
L 421.449046 125.825537 
L 421.691694 126.32489 
L 421.869153 126.824243 
L 421.981082 127.323595 
L 422.028593 127.822948 
L 422.014192 128.322301 
L 421.941675 128.821654 
L 421.815981 129.321007 
L 421.643018 129.82036 
L 421.429464 130.319712 
L 421.182543 130.819065 
L 420.909804 131.318418 
L 420.618888 131.817771 
L 420.317313 132.317124 
L 420.012265 132.816477 
L 419.710413 133.315829 
L 419.417753 133.815182 
L 419.139474 134.314535 
L 418.879864 134.813888 
L 418.642243 135.313241 
L 418.428932 135.812593 
L 418.241253 136.311946 
L 418.079557 136.811299 
L 417.943282 137.310652 
L 417.831034 137.810005 
L 417.740677 138.309358 
L 417.669458 138.80871 
L 417.614119 139.308063 
L 417.571031 139.807416 
L 417.53632 140.306769 
L 417.505997 140.806122 
L 417.476072 141.305475 
L 417.442668 141.804827 
L 417.402115 142.30418 
L 417.35103 142.803533 
L 417.286386 143.302886 
L 417.205556 143.802239 
L 417.106349 144.301592 
L 416.987022 144.800944 
L 416.846284 145.300297 
L 416.683279 145.79965 
L 416.497568 146.299003 
L 416.289092 146.798356 
L 416.058134 147.297708 
L 415.805279 147.797061 
L 415.531365 148.296414 
L 415.237442 148.795767 
L 414.924726 149.29512 
L 414.594564 149.794473 
L 414.248396 150.293825 
L 413.887728 150.793178 
L 413.514105 151.292531 
L 413.129097 151.791884 
L 412.734283 152.291237 
L 412.331242 152.79059 
L 411.921553 153.289942 
L 411.506788 153.789295 
L 411.088516 154.288648 
L 410.668307 154.788001 
L 410.247728 155.287354 
L 409.828349 155.786706 
L 409.411737 156.286059 
L 408.999459 156.785412 
L 408.59307 157.284765 
z
" clip-path="url(#p79f09a254a)" style="fill: #1f77b4; fill-opacity: 0.3"/>
   </g>
   <g id="FillBetweenPolyCollection_4">
    <path d="M 481.209535 218.372506 
L 478.174497 218.372506 
L 477.997864 217.129588 
L 477.795811 215.886669 
L 477.564269 214.64375 
L 477.299014 213.400832 
L 476.995821 212.157913 
L 476.650634 210.914994 
L 476.259766 209.672075 
L 475.820116 208.429157 
L 475.329378 207.186238 
L 474.786259 205.943319 
L 474.190668 204.700401 
L 473.543876 203.457482 
L 472.848627 202.214563 
L 472.109202 200.971644 
L 471.331404 199.728726 
L 470.522481 198.485807 
L 469.690969 197.242888 
L 468.846468 195.99997 
L 467.999349 194.757051 
L 467.160412 193.514132 
L 466.340513 192.271213 
L 465.550171 191.028295 
L 464.799185 189.785376 
L 464.096284 188.542457 
L 463.448828 187.299539 
L 462.862578 186.05662 
L 462.341556 184.813701 
L 461.887991 183.570783 
L 461.502368 182.327864 
L 461.183558 181.084945 
L 460.929036 179.842026 
L 460.735153 178.599108 
L 460.597461 177.356189 
L 460.511048 176.11327 
L 460.470875 174.870352 
L 460.472095 173.627433 
L 460.510317 172.384514 
L 460.581825 171.141595 
L 460.683723 169.898677 
L 460.814011 168.655758 
L 460.97159 167.412839 
L 461.156195 166.169921 
L 461.368273 164.927002 
L 461.608817 163.684083 
L 461.879153 162.441164 
L 462.180721 161.198246 
L 462.514838 159.955327 
L 462.88247 158.712408 
L 463.284032 157.46949 
L 463.719209 156.226571 
L 464.186818 154.983652 
L 464.684726 153.740733 
L 465.209809 152.497815 
L 465.757969 151.254896 
L 466.324207 150.011977 
L 466.902738 148.769059 
L 467.48716 147.52614 
L 468.070648 146.283221 
L 468.646178 145.040303 
L 469.206768 143.797384 
L 469.745712 142.554465 
L 470.256812 141.311546 
L 470.734577 140.068628 
L 471.1744 138.825709 
L 471.572692 137.58279 
L 471.926966 136.339872 
L 472.235882 135.096953 
L 472.499245 133.854034 
L 472.717954 132.611115 
L 472.893925 131.368197 
L 473.02998 130.125278 
L 473.12971 128.882359 
L 473.197334 127.639441 
L 473.237545 126.396522 
L 473.25536 125.153603 
L 473.255976 123.910684 
L 473.244633 122.667766 
L 473.226491 121.424847 
L 473.206522 120.181928 
L 473.189408 118.93901 
L 473.179464 117.696091 
L 473.18056 116.453172 
L 473.196069 115.210253 
L 473.228817 113.967335 
L 473.281055 112.724416 
L 473.354435 111.481497 
L 473.450004 110.238579 
L 473.568219 108.99566 
L 473.708963 107.752741 
L 473.871581 106.509822 
L 474.054934 105.266904 
L 474.257452 104.023985 
L 474.477199 102.781066 
L 474.711953 101.538148 
L 474.959269 100.295229 
L 475.216561 99.05231 
L 475.481164 97.809392 
L 475.750404 96.566473 
L 476.021655 95.323554 
L 483.362377 95.323554 
L 483.362377 95.323554 
L 483.633628 96.566473 
L 483.902869 97.809392 
L 484.167472 99.05231 
L 484.424763 100.295229 
L 484.672079 101.538148 
L 484.906833 102.781066 
L 485.126581 104.023985 
L 485.329098 105.266904 
L 485.512451 106.509822 
L 485.67507 107.752741 
L 485.815813 108.99566 
L 485.934028 110.238579 
L 486.029598 111.481497 
L 486.102977 112.724416 
L 486.155215 113.967335 
L 486.187964 115.210253 
L 486.203473 116.453172 
L 486.204569 117.696091 
L 486.194624 118.93901 
L 486.17751 120.181928 
L 486.157541 121.424847 
L 486.139399 122.667766 
L 486.128056 123.910684 
L 486.128672 125.153603 
L 486.146488 126.396522 
L 486.186699 127.639441 
L 486.254322 128.882359 
L 486.354052 130.125278 
L 486.490107 131.368197 
L 486.666079 132.611115 
L 486.884788 133.854034 
L 487.14815 135.096953 
L 487.457067 136.339872 
L 487.81134 137.58279 
L 488.209632 138.825709 
L 488.649456 140.068628 
L 489.12722 141.311546 
L 489.63832 142.554465 
L 490.177264 143.797384 
L 490.737855 145.040303 
L 491.313385 146.283221 
L 491.896872 147.52614 
L 492.481294 148.769059 
L 493.059826 150.011977 
L 493.626063 151.254896 
L 494.174224 152.497815 
L 494.699306 153.740733 
L 495.197214 154.983652 
L 495.664824 156.226571 
L 496.1 157.46949 
L 496.501562 158.712408 
L 496.869195 159.955327 
L 497.203311 161.198246 
L 497.504879 162.441164 
L 497.775216 163.684083 
L 498.015759 164.927002 
L 498.227838 166.169921 
L 498.412442 167.412839 
L 498.570021 168.655758 
L 498.70031 169.898677 
L 498.802208 171.141595 
L 498.873716 172.384514 
L 498.911938 173.627433 
L 498.913157 174.870352 
L 498.872985 176.11327 
L 498.786571 177.356189 
L 498.648879 178.599108 
L 498.454997 179.842026 
L 498.200474 181.084945 
L 497.881664 182.327864 
L 497.496041 183.570783 
L 497.042477 184.813701 
L 496.521454 186.05662 
L 495.935205 187.299539 
L 495.287748 188.542457 
L 494.584847 189.785376 
L 493.833861 191.028295 
L 493.043519 192.271213 
L 492.22362 193.514132 
L 491.384684 194.757051 
L 490.537564 195.99997 
L 489.693063 197.242888 
L 488.861552 198.485807 
L 488.052628 199.728726 
L 487.27483 200.971644 
L 486.535405 202.214563 
L 485.840157 203.457482 
L 485.193364 204.700401 
L 484.597773 205.943319 
L 484.054655 207.186238 
L 483.563917 208.429157 
L 483.124266 209.672075 
L 482.733399 210.914994 
L 482.388211 212.157913 
L 482.085018 213.400832 
L 481.819764 214.64375 
L 481.588221 215.886669 
L 481.386168 217.129588 
L 481.209535 218.372506 
z
" clip-path="url(#p79f09a254a)" style="fill: #1f77b4; fill-opacity: 0.3"/>
   </g>
   <g id="matplotlib.axis_3">
    <g id="xtick_3">
     <g id="line2d_15">
      <g>
       <use xlink:href="#m4fae44fcb8" x="402.807452" y="306.056" style="stroke: #000000; stroke-width: 0.8"/>
      </g>
     </g>
     <g id="text_10">
      <!-- DataConvert -->
      <g transform="translate(371.098077 320.654437) scale(0.1 -0.1)">
       <use xlink:href="#DejaVuSans-44"/>
       <use xlink:href="#DejaVuSans-61" transform="translate(77.001953 0)"/>
       <use xlink:href="#DejaVuSans-74" transform="translate(138.28125 0)"/>
       <use xlink:href="#DejaVuSans-61" transform="translate(177.490234 0)"/>
       <use xlink:href="#DejaVuSans-43" transform="translate(238.769531 0)"/>
       <use xlink:href="#DejaVuSans-6f" transform="translate(308.59375 0)"/>
       <use xlink:href="#DejaVuSans-6e" transform="translate(369.775391 0)"/>
       <use xlink:href="#DejaVuSans-76" transform="translate(433.154297 0)"/>
       <use xlink:href="#DejaVuSans-65" transform="translate(492.333984 0)"/>
       <use xlink:href="#DejaVuSans-72" transform="translate(553.857422 0)"/>
       <use xlink:href="#DejaVuSans-74" transform="translate(594.970703 0)"/>
      </g>
      <!-- (vendor) -->
      <g transform="translate(381.41214 331.85225) scale(0.1 -0.1)">
       <use xlink:href="#DejaVuSans-28"/>
       <use xlink:href="#DejaVuSans-76" transform="translate(39.013672 0)"/>
       <use xlink:href="#DejaVuSans-65" transform="translate(98.193359 0)"/>
       <use xlink:href="#DejaVuSans-6e" transform="translate(159.716797 0)"/>
       <use xlink:href="#DejaVuSans-64" transform="translate(223.095703 0)"/>
       <use xlink:href="#DejaVuSans-6f" transform="translate(286.572266 0)"/>
       <use xlink:href="#DejaVuSans-72" transform="translate(347.753906 0)"/>
       <use xlink:href="#DejaVuSans-29" transform="translate(388.867188 0)"/>
      </g>
     </g>
    </g>
    <g id="xtick_4">
     <g id="line2d_16">
      <g>
       <use xlink:href="#m4fae44fcb8" x="479.692016" y="306.056" style="stroke: #000000; stroke-width: 0.8"/>
      </g>
     </g>
     <g id="text_11">
      <!-- Manual cal. -->
      <g transform="translate(451.142797 320.654437) scale(0.1 -0.1)">
       <use xlink:href="#DejaVuSans-4d"/>
       <use xlink:href="#DejaVuSans-61" transform="translate(86.279297 0)"/>
       <use xlink:href="#DejaVuSans-6e" transform="translate(147.558594 0)"/>
       <use xlink:href="#DejaVuSans-75" transform="translate(210.9375 0)"/>
       <use xlink:href="#DejaVuSans-61" transform="translate(274.316406 0)"/>
       <use xlink:href="#DejaVuSans-6c" transform="translate(335.595703 0)"/>
       <use xlink:href="#DejaVuSans-20" transform="translate(363.378906 0)"/>
       <use xlink:href="#DejaVuSans-63" transform="translate(395.166016 0)"/>
       <use xlink:href="#DejaVuSans-61" transform="translate(450.146484 0)"/>
       <use xlink:href="#DejaVuSans-6c" transform="translate(511.425781 0)"/>
       <use xlink:href="#DejaVuSans-2e" transform="translate(539.208984 0)"/>
      </g>
      <!-- (this tool) -->
      <g transform="translate(455.610766 331.85225) scale(0.1 -0.1)">
       <use xlink:href="#DejaVuSans-28"/>
       <use xlink:href="#DejaVuSans-74" transform="translate(39.013672 0)"/>
       <use xlink:href="#DejaVuSans-68" transform="translate(78.222656 0)"/>
       <use xlink:href="#DejaVuSans-69" transform="translate(141.601562 0)"/>
       <use xlink:href="#DejaVuSans-73" transform="translate(169.384766 0)"/>
       <use xlink:href="#DejaVuSans-20" transform="translate(221.484375 0)"/>
       <use xlink:href="#DejaVuSans-74" transform="translate(253.271484 0)"/>
       <use xlink:href="#DejaVuSans-6f" transform="translate(292.480469 0)"/>
       <use xlink:href="#DejaVuSans-6f" transform="translate(353.662109 0)"/>
       <use xlink:href="#DejaVuSans-6c" transform="translate(414.84375 0)"/>
       <use xlink:href="#DejaVuSans-29" transform="translate(442.626953 0)"/>
      </g>
     </g>
    </g>
   </g>
   <g id="matplotlib.axis_4">
    <g id="ytick_6">
     <g id="line2d_17">
      <g>
       <use xlink:href="#mbef438dcb1" x="377.819969" y="296.538898" style="stroke: #000000; stroke-width: 0.8"/>
      </g>
     </g>
     <g id="text_12">
      <!-- −0.004 -->
      <g transform="translate(333.812156 300.338116) scale(0.1 -0.1)">
       <use xlink:href="#DejaVuSans-2212"/>
       <use xlink:href="#DejaVuSans-30" transform="translate(83.789062 0)"/>
       <use xlink:href="#DejaVuSans-2e" transform="translate(147.412109 0)"/>
       <use xlink:href="#DejaVuSans-30" transform="translate(179.199219 0)"/>
       <use xlink:href="#DejaVuSans-30" transform="translate(242.822266 0)"/>
       <use xlink:href="#DejaVuSans-34" transform="translate(306.445312 0)"/>
      </g>
     </g>
    </g>
    <g id="ytick_7">
     <g id="line2d_18">
      <g>
       <use xlink:href="#mbef438dcb1" x="377.819969" y="264.021173" style="stroke: #000000; stroke-width: 0.8"/>
      </g>
     </g>
     <g id="text_13">
      <!-- −0.003 -->
      <g transform="translate(333.812156 267.820392) scale(0.1 -0.1)">
       <defs>
        <path id="DejaVuSans-33" d="M 2597 2516 
Q 3050 2419 3304 2112 
Q 3559 1806 3559 1356 
Q 3559 666 3084 287 
Q 2609 -91 1734 -91 
Q 1441 -91 1130 -33 
Q 819 25 488 141 
L 488 750 
Q 750 597 1062 519 
Q 1375 441 1716 441 
Q 2309 441 2620 675 
Q 2931 909 2931 1356 
Q 2931 1769 2642 2001 
Q 2353 2234 1838 2234 
L 1294 2234 
L 1294 2753 
L 1863 2753 
Q 2328 2753 2575 2939 
Q 2822 3125 2822 3475 
Q 2822 3834 2567 4026 
Q 2313 4219 1838 4219 
Q 1578 4219 1281 4162 
Q 984 4106 628 3988 
L 628 4550 
Q 988 4650 1302 4700 
Q 1616 4750 1894 4750 
Q 2613 4750 3031 4423 
Q 3450 4097 3450 3541 
Q 3450 3153 3228 2886 
Q 3006 2619 2597 2516 
z
" transform="scale(0.015625)"/>
       </defs>
       <use xlink:href="#DejaVuSans-2212"/>
       <use xlink:href="#DejaVuSans-30" transform="translate(83.789062 0)"/>
       <use xlink:href="#DejaVuSans-2e" transform="translate(147.412109 0)"/>
       <use xlink:href="#DejaVuSans-30" transform="translate(179.199219 0)"/>
       <use xlink:href="#DejaVuSans-30" transform="translate(242.822266 0)"/>
       <use xlink:href="#DejaVuSans-33" transform="translate(306.445312 0)"/>
      </g>
     </g>
    </g>
    <g id="ytick_8">
     <g id="line2d_19">
      <g>
       <use xlink:href="#mbef438dcb1" x="377.819969" y="231.503449" style="stroke: #000000; stroke-width: 0.8"/>
      </g>
     </g>
     <g id="text_14">
      <!-- −0.002 -->
      <g transform="translate(333.812156 235.302668) scale(0.1 -0.1)">
       <use xlink:href="#DejaVuSans-2212"/>
       <use xlink:href="#DejaVuSans-30" transform="translate(83.789062 0)"/>
       <use xlink:href="#DejaVuSans-2e" transform="translate(147.412109 0)"/>
       <use xlink:href="#DejaVuSans-30" transform="translate(179.199219 0)"/>
       <use xlink:href="#DejaVuSans-30" transform="translate(242.822266 0)"/>
       <use xlink:href="#DejaVuSans-32" transform="translate(306.445312 0)"/>
      </g>
     </g>
    </g>
    <g id="ytick_9">
     <g id="line2d_20">
      <g>
       <use xlink:href="#mbef438dcb1" x="377.819969" y="198.985724" style="stroke: #000000; stroke-width: 0.8"/>
      </g>
     </g>
     <g id="text_15">
      <!-- −0.001 -->
      <g transform="translate(333.812156 202.784943) scale(0.1 -0.1)">
       <defs>
        <path id="DejaVuSans-31" d="M 794 531 
L 1825 531 
L 1825 4091 
L 703 3866 
L 703 4441 
L 1819 4666 
L 2450 4666 
L 2450 531 
L 3481 531 
L 3481 0 
L 794 0 
L 794 531 
z
" transform="scale(0.015625)"/>
       </defs>
       <use xlink:href="#DejaVuSans-2212"/>
       <use xlink:href="#DejaVuSans-30" transform="translate(83.789062 0)"/>
       <use xlink:href="#DejaVuSans-2e" transform="translate(147.412109 0)"/>
       <use xlink:href="#DejaVuSans-30" transform="translate(179.199219 0)"/>
       <use xlink:href="#DejaVuSans-30" transform="translate(242.822266 0)"/>
       <use xlink:href="#DejaVuSans-31" transform="translate(306.445312 0)"/>
      </g>
     </g>
    </g>
    <g id="ytick_10">
     <g id="line2d_21">
      <g>
       <use xlink:href="#mbef438dcb1" x="377.819969" y="166.468" style="stroke: #000000; stroke-width: 0.8"/>
      </g>
     </g>
     <g id="text_16">
      <!-- 0.000 -->
      <g transform="translate(342.191844 170.267219) scale(0.1 -0.1)">
       <use xlink:href="#DejaVuSans-30"/>
       <use xlink:href="#DejaVuSans-2e" transform="translate(63.623047 0)"/>
       <use xlink:href="#DejaVuSans-30" transform="translate(95.410156 0)"/>
       <use xlink:href="#DejaVuSans-30" transform="translate(159.033203 0)"/>
       <use xlink:href="#DejaVuSans-30" transform="translate(222.65625 0)"/>
      </g>
     </g>
    </g>
    <g id="ytick_11">
     <g id="line2d_22">
      <g>
       <use xlink:href="#mbef438dcb1" x="377.819969" y="133.950276" style="stroke: #000000; stroke-width: 0.8"/>
      </g>
     </g>
     <g id="text_17">
      <!-- 0.001 -->
      <g transform="translate(342.191844 137.749494) scale(0.1 -0.1)">
       <use xlink:href="#DejaVuSans-30"/>
       <use xlink:href="#DejaVuSans-2e" transform="translate(63.623047 0)"/>
       <use xlink:href="#DejaVuSans-30" transform="translate(95.410156 0)"/>
       <use xlink:href="#DejaVuSans-30" transform="translate(159.033203 0)"/>
       <use xlink:href="#DejaVuSans-31" transform="translate(222.65625 0)"/>
      </g>
     </g>
    </g>
    <g id="ytick_12">
     <g id="line2d_23">
      <g>
       <use xlink:href="#mbef438dcb1" x="377.819969" y="101.432551" style="stroke: #000000; stroke-width: 0.8"/>
      </g>
     </g>
     <g id="text_18">
      <!-- 0.002 -->
      <g transform="translate(342.191844 105.23177) scale(0.1 -0.1)">
       <use xlink:href="#DejaVuSans-30"/>
       <use xlink:href="#DejaVuSans-2e" transform="translate(63.623047 0)"/>
       <use xlink:href="#DejaVuSans-30" transform="translate(95.410156 0)"/>
       <use xlink:href="#DejaVuSans-30" transform="translate(159.033203 0)"/>
       <use xlink:href="#DejaVuSans-32" transform="translate(222.65625 0)"/>
      </g>
     </g>
    </g>
    <g id="ytick_13">
     <g id="line2d_24">
      <g>
       <use xlink:href="#mbef438dcb1" x="377.819969" y="68.914827" style="stroke: #000000; stroke-width: 0.8"/>
      </g>
     </g>
     <g id="text_19">
      <!-- 0.003 -->
      <g transform="translate(342.191844 72.714046) scale(0.1 -0.1)">
       <use xlink:href="#DejaVuSans-30"/>
       <use xlink:href="#DejaVuSans-2e" transform="translate(63.623047 0)"/>
       <use xlink:href="#DejaVuSans-30" transform="translate(95.410156 0)"/>
       <use xlink:href="#DejaVuSans-30" transform="translate(159.033203 0)"/>
       <use xlink:href="#DejaVuSans-33" transform="translate(222.65625 0)"/>
      </g>
     </g>
    </g>
    <g id="ytick_14">
     <g id="line2d_25">
      <g>
       <use xlink:href="#mbef438dcb1" x="377.819969" y="36.397102" style="stroke: #000000; stroke-width: 0.8"/>
      </g>
     </g>
     <g id="text_20">
      <!-- 0.004 -->
      <g transform="translate(342.191844 40.196321) scale(0.1 -0.1)">
       <use xlink:href="#DejaVuSans-30"/>
       <use xlink:href="#DejaVuSans-2e" transform="translate(63.623047 0)"/>
       <use xlink:href="#DejaVuSans-30" transform="translate(95.410156 0)"/>
       <use xlink:href="#DejaVuSans-30" transform="translate(159.033203 0)"/>
       <use xlink:href="#DejaVuSans-34" transform="translate(222.65625 0)"/>
      </g>
     </g>
    </g>
    <g id="text_21">
     <!-- Mass error (Da) -->
     <g transform="translate(327.732469 205.151594) rotate(-90) scale(0.1 -0.1)">
      <use xlink:href="#DejaVuSans-4d"/>
      <use xlink:href="#DejaVuSans-61" transform="translate(86.279297 0)"/>
      <use xlink:href="#DejaVuSans-73" transform="translate(147.558594 0)"/>
      <use xlink:href="#DejaVuSans-73" transform="translate(199.658203 0)"/>
      <use xlink:href="#DejaVuSans-20" transform="translate(251.757812 0)"/>
      <use xlink:href="#DejaVuSans-65" transform="translate(283.544922 0)"/>
      <use xlink:href="#DejaVuSans-72" transform="translate(345.068359 0)"/>
      <use xlink:href="#DejaVuSans-72" transform="translate(384.431641 0)"/>
      <use xlink:href="#DejaVuSans-6f" transform="translate(423.294922 0)"/>
      <use xlink:href="#DejaVuSans-72" transform="translate(484.476562 0)"/>
      <use xlink:href="#DejaVuSans-20" transform="translate(525.589844 0)"/>
      <use xlink:href="#DejaVuSans-28" transform="translate(557.376953 0)"/>
      <use xlink:href="#DejaVuSans-44" transform="translate(596.390625 0)"/>
      <use xlink:href="#DejaVuSans-61" transform="translate(673.392578 0)"/>
      <use xlink:href="#DejaVuSans-29" transform="translate(734.671875 0)"/>
     </g>
    </g>
   </g>
   <g id="LineCollection_5">
    <path d="M 393.196882 132.766198 
L 412.418023 132.766198 
" clip-path="url(#p79f09a254a)" style="fill: none; stroke: #1f77b4; stroke-width: 1.5"/>
    <path d="M 470.081446 159.976393 
L 489.302587 159.976393 
" clip-path="url(#p79f09a254a)" style="fill: none; stroke: #1f77b4; stroke-width: 1.5"/>
   </g>
   <g id="LineCollection_6">
    <path d="M 393.196882 107.848835 
L 412.418023 107.848835 
" clip-path="url(#p79f09a254a)" style="fill: none; stroke: #1f77b4; stroke-width: 1.5"/>
    <path d="M 470.081446 95.323554 
L 489.302587 95.323554 
" clip-path="url(#p79f09a254a)" style="fill: none; stroke: #1f77b4; stroke-width: 1.5"/>
   </g>
   <g id="LineCollection_7">
    <path d="M 393.196882 157.284765 
L 412.418023 157.284765 
" clip-path="url(#p79f09a254a)" style="fill: none; stroke: #1f77b4; stroke-width: 1.5"/>
    <path d="M 470.081446 218.372506 
L 489.302587 218.372506 
" clip-path="url(#p79f09a254a)" style="fill: none; stroke: #1f77b4; stroke-width: 1.5"/>
   </g>
   <g id="LineCollection_8">
    <path d="M 402.807452 157.284765 
L 402.807452 107.848835 
" clip-path="url(#p79f09a254a)" style="fill: none; stroke: #1f77b4; stroke-width: 1.5"/>
    <path d="M 479.692016 218.372506 
L 479.692016 95.323554 
" clip-path="url(#p79f09a254a)" style="fill: none; stroke: #1f77b4; stroke-width: 1.5"/>
   </g>
   <g id="line2d_26">
    <path d="M 377.819969 166.468 
L 504.679499 166.468 
" clip-path="url(#p79f09a254a)" style="fill: none; stroke: #1f77b4; stroke-width: 1.5; stroke-linecap: square"/>
   </g>
   <g id="line2d_27">
    <path d="M 377.819969 226.291429 
L 504.679499 226.291429 
" clip-path="url(#p79f09a254a)" style="fill: none; stroke-dasharray: 3.7,1.6; stroke-dashoffset: 0; stroke: #808080"/>
   </g>
   <g id="line2d_28">
    <path d="M 377.819969 206.350286 
L 504.679499 206.350286 
" clip-path="url(#p79f09a254a)" style="fill: none; stroke-dasharray: 3.7,1.6; stroke-dashoffset: 0; stroke: #808080"/>
   </g>
   <g id="line2d_29">
    <path d="M 377.819969 186.409143 
L 504.679499 186.409143 
" clip-path="url(#p79f09a254a)" style="fill: none; stroke-dasharray: 3.7,1.6; stroke-dashoffset: 0; stroke: #808080"/>
   </g>
   <g id="line2d_30">
    <path d="M 377.819969 146.526857 
L 504.679499 146.526857 
" clip-path="url(#p79f09a254a)" style="fill: none; stroke-dasharray: 3.7,1.6; stroke-dashoffset: 0; stroke: #808080"/>
   </g>
   <g id="line2d_31">
    <path d="M 377.819969 126.585714 
L 504.679499 126.585714 
" clip-path="url(#p79f09a254a)" style="fill: none; stroke-dasharray: 3.7,1.6; stroke-dashoffset: 0; stroke: #808080"/>
   </g>
   <g id="line2d_32">
    <path d="M 377.819969 106.644571 
L 504.679499 106.644571 
" clip-path="url(#p79f09a254a)" style="fill: none; stroke-dasharray: 3.7,1.6; stroke-dashoffset: 0; stroke: #808080"/>
   </g>
   <g id="patch_8">
    <path d="M 377.819969 306.056 
L 377.819969 26.88 
" style="fill: none; stroke: #000000; stroke-width: 0.8; stroke-linejoin: miter; stroke-linecap: square"/>
   </g>
   <g id="patch_9">
    <path d="M 504.679499 306.056 
L 504.679499 26.88 
" style="fill: none; stroke: #000000; stroke-width: 0.8; stroke-linejoin: miter; stroke-linecap: square"/>
   </g>
   <g id="patch_10">
    <path d="M 377.819969 306.056 
L 504.679499 306.056 
" style="fill: none; stroke: #000000; stroke-width: 0.8; stroke-linejoin: miter; stroke-linecap: square"/>
   </g>
   <g id="patch_11">
    <path d="M 377.819969 26.88 
L 504.679499 26.88 
" style="fill: none; stroke: #000000; stroke-width: 0.8; stroke-linejoin: miter; stroke-linecap: square"/>
   </g>
   <g id="text_22">
    <!-- Novobiocin -->
    <g transform="translate(407.951609 20.88) scale(0.12 -0.12)">
     <defs>
      <path id="DejaVuSans-4e" d="M 628 4666 
L 1478 4666 
L 3547 763 
L 3547 4666 
L 4159 4666 
L 4159 0 
L 3309 0 
L 1241 3903 
L 1241 0 
L 628 0 
L 628 4666 
z
" transform="scale(0.015625)"/>
      <path id="DejaVuSans-62" d="M 3116 1747 
Q 3116 2381 2855 2742 
Q 2594 3103 2138 3103 
Q 1681 3103 1420 2742 
Q 1159 2381 1159 1747 
Q 1159 1113 1420 752 
Q 1681 391 2138 391 
Q 2594 391 2855 752 
Q 3116 1113 3116 1747 
z
M 1159 2969 
Q 1341 3281 1617 3432 
Q 1894 3584 2278 3584 
Q 2916 3584 3314 3078 
Q 3713 2572 3713 1747 
Q 3713 922 3314 415 
Q 2916 -91 2278 -91 
Q 1894 -91 1617 61 
Q 1341 213 1159 525 
L 1159 0 
L 581 0 
L 581 4863 
L 1159 4863 
L 1159 2969 
z
" transform="scale(0.015625)"/>
     </defs>
     <use xlink:href="#DejaVuSans-4e"/>
     <use xlink:href="#DejaVuSans-6f" transform="translate(74.804688 0)"/>
     <use xlink:href="#DejaVuSans-76" transform="translate(135.986328 0)"/>
     <use xlink:href="#DejaVuSans-6f" transform="translate(195.166016 0)"/>
     <use xlink:href="#DejaVuSans-62" transform="translate(256.347656 0)"/>
     <use xlink:href="#DejaVuSans-69" transform="translate(319.824219 0)"/>
     <use xlink:href="#DejaVuSans-6f" transform="translate(347.607422 0)"/>
     <use xlink:href="#DejaVuSans-63" transform="translate(408.789062 0)"/>
     <use xlink:href="#DejaVuSans-69" transform="translate(463.769531 0)"/>
     <use xlink:href="#DejaVuSans-6e" transform="translate(491.552734 0)"/>
    </g>
   </g>
  </g>
  <g id="axes_3">
   <g id="patch_12">
    <path d="M 637.090563 306.056 
L 763.950093 306.056 
L 763.950093 26.88 
L 637.090563 26.88 
z
" style="fill: #ffffff"/>
   </g>
   <g id="FillBetweenPolyCollection_5">
    <path d="M 668.44184 268.678234 
L 655.714252 268.678234 
L 655.240998 268.14397 
L 654.753753 267.609705 
L 654.253951 267.075441 
L 653.74315 266.541176 
L 653.223028 266.006911 
L 652.695368 265.472647 
L 652.162043 264.938382 
L 651.625007 264.404118 
L 651.086276 263.869853 
L 650.547915 263.335588 
L 650.012022 262.801324 
L 649.480717 262.267059 
L 648.956125 261.732795 
L 648.440364 261.19853 
L 647.935536 260.664266 
L 647.443719 260.130001 
L 646.966953 259.595736 
L 646.507244 259.061472 
L 646.06655 258.527207 
L 645.646786 257.992943 
L 645.249819 257.458678 
L 644.877462 256.924413 
L 644.531478 256.390149 
L 644.213575 255.855884 
L 643.925395 255.32162 
L 643.668514 254.787355 
L 643.444421 254.253091 
L 643.254513 253.718826 
L 643.100065 253.184561 
L 642.982214 252.650297 
L 642.901929 252.116032 
L 642.85998 251.581768 
L 642.856905 251.047503 
L 642.892978 250.513238 
L 642.968173 249.978974 
L 643.082132 249.444709 
L 643.234139 248.910445 
L 643.423092 248.37618 
L 643.64749 247.841916 
L 643.905421 247.307651 
L 644.194566 246.773386 
L 644.512208 246.239122 
L 644.855252 245.704857 
L 645.220261 245.170593 
L 645.603496 244.636328 
L 646.000968 244.102063 
L 646.4085 243.567799 
L 646.821793 243.033534 
L 647.236498 242.49927 
L 647.648289 241.965005 
L 648.052941 241.430741 
L 648.446398 240.896476 
L 648.824844 240.362211 
L 649.184766 239.827947 
L 649.523006 239.293682 
L 649.836812 238.759418 
L 650.123865 238.225153 
L 650.382316 237.690888 
L 650.61079 237.156624 
L 650.808399 236.622359 
L 650.974732 236.088095 
L 651.109847 235.55383 
L 651.214246 235.019565 
L 651.288852 234.485301 
L 651.334978 233.951036 
L 651.354295 233.416772 
L 651.348793 232.882507 
L 651.320745 232.348243 
L 651.272675 231.813978 
L 651.20732 231.279713 
L 651.127592 230.745449 
L 651.036552 230.211184 
L 650.937371 229.67692 
L 650.833305 229.142655 
L 650.727658 228.60839 
L 650.623755 228.074126 
L 650.524912 227.539861 
L 650.434399 227.005597 
L 650.35541 226.471332 
L 650.291029 225.937068 
L 650.244189 225.402803 
L 650.217642 224.868538 
L 650.213913 224.334274 
L 650.23527 223.800009 
L 650.28368 223.265745 
L 650.36078 222.73148 
L 650.467843 222.197215 
L 650.605747 221.662951 
L 650.774961 221.128686 
L 650.975522 220.594422 
L 651.207032 220.060157 
L 651.468654 219.525893 
L 651.759124 218.991628 
L 652.076772 218.457363 
L 652.41954 217.923099 
L 652.785025 217.388834 
L 653.17052 216.85457 
L 653.573061 216.320305 
L 653.989485 215.78604 
L 670.166606 215.78604 
L 670.166606 215.78604 
L 670.583031 216.320305 
L 670.985572 216.85457 
L 671.371067 217.388834 
L 671.736552 217.923099 
L 672.07932 218.457363 
L 672.396967 218.991628 
L 672.687438 219.525893 
L 672.94906 220.060157 
L 673.180569 220.594422 
L 673.38113 221.128686 
L 673.550344 221.662951 
L 673.688249 222.197215 
L 673.795311 222.73148 
L 673.872411 223.265745 
L 673.920822 223.800009 
L 673.942178 224.334274 
L 673.93845 224.868538 
L 673.911903 225.402803 
L 673.865063 225.937068 
L 673.800682 226.471332 
L 673.721693 227.005597 
L 673.63118 227.539861 
L 673.532336 228.074126 
L 673.428434 228.60839 
L 673.322787 229.142655 
L 673.21872 229.67692 
L 673.11954 230.211184 
L 673.028499 230.745449 
L 672.948772 231.279713 
L 672.883416 231.813978 
L 672.835347 232.348243 
L 672.807299 232.882507 
L 672.801796 233.416772 
L 672.821113 233.951036 
L 672.86724 234.485301 
L 672.941846 235.019565 
L 673.046245 235.55383 
L 673.181359 236.088095 
L 673.347692 236.622359 
L 673.545301 237.156624 
L 673.773776 237.690888 
L 674.032226 238.225153 
L 674.31928 238.759418 
L 674.633085 239.293682 
L 674.971326 239.827947 
L 675.331248 240.362211 
L 675.709694 240.896476 
L 676.103151 241.430741 
L 676.507802 241.965005 
L 676.919594 242.49927 
L 677.334299 243.033534 
L 677.747592 243.567799 
L 678.155124 244.102063 
L 678.552596 244.636328 
L 678.93583 245.170593 
L 679.30084 245.704857 
L 679.643884 246.239122 
L 679.961526 246.773386 
L 680.250671 247.307651 
L 680.508602 247.841916 
L 680.733 248.37618 
L 680.921953 248.910445 
L 681.073959 249.444709 
L 681.187919 249.978974 
L 681.263114 250.513238 
L 681.299187 251.047503 
L 681.296112 251.581768 
L 681.254163 252.116032 
L 681.173878 252.650297 
L 681.056027 253.184561 
L 680.901579 253.718826 
L 680.71167 254.253091 
L 680.487578 254.787355 
L 680.230696 255.32162 
L 679.942517 255.855884 
L 679.624613 256.390149 
L 679.27863 256.924413 
L 678.906273 257.458678 
L 678.509305 257.992943 
L 678.089542 258.527207 
L 677.648848 259.061472 
L 677.189138 259.595736 
L 676.712373 260.130001 
L 676.220555 260.664266 
L 675.715728 261.19853 
L 675.199967 261.732795 
L 674.675374 262.267059 
L 674.144069 262.801324 
L 673.608177 263.335588 
L 673.069815 263.869853 
L 672.531084 264.404118 
L 671.994048 264.938382 
L 671.460724 265.472647 
L 670.933063 266.006911 
L 670.412942 266.541176 
L 669.902141 267.075441 
L 669.402339 267.609705 
L 668.915094 268.14397 
L 668.44184 268.678234 
z
" clip-path="url(#p923d210d94)" style="fill: #1f77b4; fill-opacity: 0.3"/>
   </g>
   <g id="FillBetweenPolyCollection_6">
    <path d="M 740.341088 203.716854 
L 737.584132 203.716854 
L 737.520105 202.939906 
L 737.453931 202.162958 
L 737.384016 201.386009 
L 737.308581 200.609061 
L 737.225733 199.832113 
L 737.133541 199.055165 
L 737.030124 198.278216 
L 736.913733 197.501268 
L 736.782824 196.72432 
L 736.636131 195.947371 
L 736.472706 195.170423 
L 736.291952 194.393475 
L 736.093628 193.616526 
L 735.877828 192.839578 
L 735.644941 192.06263 
L 735.39559 191.285681 
L 735.130552 190.508733 
L 734.850674 189.731785 
L 734.556779 188.954837 
L 734.249579 188.177888 
L 733.929601 187.40094 
L 733.597125 186.623992 
L 733.252147 185.847043 
L 732.894373 185.070095 
L 732.523232 184.293147 
L 732.137929 183.516198 
L 731.737507 182.73925 
L 731.320951 181.962302 
L 730.887285 181.185353 
L 730.435693 180.408405 
L 729.96563 179.631457 
L 729.476932 178.854508 
L 728.969904 178.07756 
L 728.445393 177.300612 
L 727.904835 176.523664 
L 727.350276 175.746715 
L 726.784368 174.969767 
L 726.210339 174.192819 
L 725.631948 173.41587 
L 725.053415 172.638922 
L 724.479352 171.861974 
L 723.914681 171.085025 
L 723.364548 170.308077 
L 722.834247 169.531129 
L 722.329141 168.75418 
L 721.854585 167.977232 
L 721.415857 167.200284 
L 721.018086 166.423336 
L 720.666181 165.646387 
L 720.364758 164.869439 
L 720.118063 164.092491 
L 719.929885 163.315542 
L 719.803478 162.538594 
L 719.741469 161.761646 
L 719.745776 160.984697 
L 719.817532 160.207749 
L 719.957016 159.430801 
L 720.163607 158.653852 
L 720.435751 157.876904 
L 720.770955 157.099956 
L 721.165812 156.323007 
L 721.616038 155.546059 
L 722.116549 154.769111 
L 722.661552 153.992163 
L 723.244658 153.215214 
L 723.859007 152.438266 
L 724.49741 151.661318 
L 725.152488 150.884369 
L 725.816817 150.107421 
L 726.483072 149.330473 
L 727.144164 148.553524 
L 727.793368 147.776576 
L 728.424442 146.999628 
L 729.031738 146.222679 
L 729.610297 145.445731 
L 730.155934 144.668783 
L 730.665306 143.891835 
L 731.135962 143.114886 
L 731.566384 142.337938 
L 731.955993 141.56099 
L 732.305147 140.784041 
L 732.615109 140.007093 
L 732.88799 139.230145 
L 733.126671 138.453196 
L 733.3347 137.676248 
L 733.516167 136.8993 
L 733.675563 136.122351 
L 733.817625 135.345403 
L 733.947176 134.568455 
L 734.068956 133.791506 
L 734.187469 133.014558 
L 734.306835 132.23761 
L 734.430665 131.460662 
L 734.561952 130.683713 
L 734.702999 129.906765 
L 734.855376 129.129817 
L 735.0199 128.352868 
L 735.196659 127.57592 
L 735.385059 126.798972 
L 742.540161 126.798972 
L 742.540161 126.798972 
L 742.72856 127.57592 
L 742.90532 128.352868 
L 743.069844 129.129817 
L 743.22222 129.906765 
L 743.363268 130.683713 
L 743.494555 131.460662 
L 743.618384 132.23761 
L 743.737751 133.014558 
L 743.856264 133.791506 
L 743.978044 134.568455 
L 744.107594 135.345403 
L 744.249657 136.122351 
L 744.409053 136.8993 
L 744.59052 137.676248 
L 744.798548 138.453196 
L 745.037229 139.230145 
L 745.31011 140.007093 
L 745.620072 140.784041 
L 745.969227 141.56099 
L 746.358836 142.337938 
L 746.789257 143.114886 
L 747.259914 143.891835 
L 747.769286 144.668783 
L 748.314923 145.445731 
L 748.893482 146.222679 
L 749.500778 146.999628 
L 750.131852 147.776576 
L 750.781055 148.553524 
L 751.442148 149.330473 
L 752.108403 150.107421 
L 752.772732 150.884369 
L 753.42781 151.661318 
L 754.066213 152.438266 
L 754.680562 153.215214 
L 755.263668 153.992163 
L 755.808671 154.769111 
L 756.309182 155.546059 
L 756.759408 156.323007 
L 757.154264 157.099956 
L 757.489469 157.876904 
L 757.761613 158.653852 
L 757.968204 159.430801 
L 758.107688 160.207749 
L 758.179444 160.984697 
L 758.183751 161.761646 
L 758.121742 162.538594 
L 757.995335 163.315542 
L 757.807157 164.092491 
L 757.560462 164.869439 
L 757.259039 165.646387 
L 756.907134 166.423336 
L 756.509363 167.200284 
L 756.070634 167.977232 
L 755.596078 168.75418 
L 755.090972 169.531129 
L 754.560672 170.308077 
L 754.010539 171.085025 
L 753.445867 171.861974 
L 752.871805 172.638922 
L 752.293272 173.41587 
L 751.71488 174.192819 
L 751.140852 174.969767 
L 750.574944 175.746715 
L 750.020385 176.523664 
L 749.479827 177.300612 
L 748.955316 178.07756 
L 748.448288 178.854508 
L 747.959589 179.631457 
L 747.489527 180.408405 
L 747.037935 181.185353 
L 746.604269 181.962302 
L 746.187712 182.73925 
L 745.787291 183.516198 
L 745.401988 184.293147 
L 745.030847 185.070095 
L 744.673073 185.847043 
L 744.328095 186.623992 
L 743.995619 187.40094 
L 743.675641 188.177888 
L 743.368441 188.954837 
L 743.074546 189.731785 
L 742.794668 190.508733 
L 742.52963 191.285681 
L 742.280278 192.06263 
L 742.047392 192.839578 
L 741.831591 193.616526 
L 741.633267 194.393475 
L 741.452514 195.170423 
L 741.289089 195.947371 
L 741.142396 196.72432 
L 741.011487 197.501268 
L 740.895096 198.278216 
L 740.791679 199.055165 
L 740.699487 199.832113 
L 740.616639 200.609061 
L 740.541204 201.386009 
L 740.471289 202.162958 
L 740.405115 202.939906 
L 740.341088 203.716854 
z
" clip-path="url(#p923d210d94)" style="fill: #1f77b4; fill-opacity: 0.3"/>
   </g>
   <g id="matplotlib.axis_5">
    <g id="xtick_5">
     <g id="line2d_33">
      <g>
       <use xlink:href="#m4fae44fcb8" x="662.078046" y="306.056" style="stroke: #000000; stroke-width: 0.8"/>
      </g>
     </g>
     <g id="text_23">
      <!-- DataConvert -->
      <g transform="translate(630.368671 320.654437) scale(0.1 -0.1)">
       <use xlink:href="#DejaVuSans-44"/>
       <use xlink:href="#DejaVuSans-61" transform="translate(77.001953 0)"/>
       <use xlink:href="#DejaVuSans-74" transform="translate(138.28125 0)"/>
       <use xlink:href="#DejaVuSans-61" transform="translate(177.490234 0)"/>
       <use xlink:href="#DejaVuSans-43" transform="translate(238.769531 0)"/>
       <use xlink:href="#DejaVuSans-6f" transform="translate(308.59375 0)"/>
       <use xlink:href="#DejaVuSans-6e" transform="translate(369.775391 0)"/>
       <use xlink:href="#DejaVuSans-76" transform="translate(433.154297 0)"/>
       <use xlink:href="#DejaVuSans-65" transform="translate(492.333984 0)"/>
       <use xlink:href="#DejaVuSans-72" transform="translate(553.857422 0)"/>
       <use xlink:href="#DejaVuSans-74" transform="translate(594.970703 0)"/>
      </g>
      <!-- (vendor) -->
      <g transform="translate(640.682733 331.85225) scale(0.1 -0.1)">
       <use xlink:href="#DejaVuSans-28"/>
       <use xlink:href="#DejaVuSans-76" transform="translate(39.013672 0)"/>
       <use xlink:href="#DejaVuSans-65" transform="translate(98.193359 0)"/>
       <use xlink:href="#DejaVuSans-6e" transform="translate(159.716797 0)"/>
       <use xlink:href="#DejaVuSans-64" transform="translate(223.095703 0)"/>
       <use xlink:href="#DejaVuSans-6f" transform="translate(286.572266 0)"/>
       <use xlink:href="#DejaVuSans-72" transform="translate(347.753906 0)"/>
       <use xlink:href="#DejaVuSans-29" transform="translate(388.867188 0)"/>
      </g>
     </g>
    </g>
    <g id="xtick_6">
     <g id="line2d_34">
      <g>
       <use xlink:href="#m4fae44fcb8" x="738.96261" y="306.056" style="stroke: #000000; stroke-width: 0.8"/>
      </g>
     </g>
     <g id="text_24">
      <!-- Manual cal. -->
      <g transform="translate(710.413391 320.654437) scale(0.1 -0.1)">
       <use xlink:href="#DejaVuSans-4d"/>
       <use xlink:href="#DejaVuSans-61" transform="translate(86.279297 0)"/>
       <use xlink:href="#DejaVuSans-6e" transform="translate(147.558594 0)"/>
       <use xlink:href="#DejaVuSans-75" transform="translate(210.9375 0)"/>
       <use xlink:href="#DejaVuSans-61" transform="translate(274.316406 0)"/>
       <use xlink:href="#DejaVuSans-6c" transform="translate(335.595703 0)"/>
       <use xlink:href="#DejaVuSans-20" transform="translate(363.378906 0)"/>
       <use xlink:href="#DejaVuSans-63" transform="translate(395.166016 0)"/>
       <use xlink:href="#DejaVuSans-61" transform="translate(450.146484 0)"/>
       <use xlink:href="#DejaVuSans-6c" transform="translate(511.425781 0)"/>
       <use xlink:href="#DejaVuSans-2e" transform="translate(539.208984 0)"/>
      </g>
      <!-- (this tool) -->
      <g transform="translate(714.88136 331.85225) scale(0.1 -0.1)">
       <use xlink:href="#DejaVuSans-28"/>
       <use xlink:href="#DejaVuSans-74" transform="translate(39.013672 0)"/>
       <use xlink:href="#DejaVuSans-68" transform="translate(78.222656 0)"/>
       <use xlink:href="#DejaVuSans-69" transform="translate(141.601562 0)"/>
       <use xlink:href="#DejaVuSans-73" transform="translate(169.384766 0)"/>
       <use xlink:href="#DejaVuSans-20" transform="translate(221.484375 0)"/>
       <use xlink:href="#DejaVuSans-74" transform="translate(253.271484 0)"/>
       <use xlink:href="#DejaVuSans-6f" transform="translate(292.480469 0)"/>
       <use xlink:href="#DejaVuSans-6f" transform="translate(353.662109 0)"/>
       <use xlink:href="#DejaVuSans-6c" transform="translate(414.84375 0)"/>
       <use xlink:href="#DejaVuSans-29" transform="translate(442.626953 0)"/>
      </g>
     </g>
    </g>
   </g>
   <g id="matplotlib.axis_6">
    <g id="ytick_15">
     <g id="line2d_35">
      <g>
       <use xlink:href="#mbef438dcb1" x="637.090563" y="278.493093" style="stroke: #000000; stroke-width: 0.8"/>
      </g>
     </g>
     <g id="text_25">
      <!-- −0.002 -->
      <g transform="translate(593.08275 282.292311) scale(0.1 -0.1)">
       <use xlink:href="#DejaVuSans-2212"/>
       <use xlink:href="#DejaVuSans-30" transform="translate(83.789062 0)"/>
       <use xlink:href="#DejaVuSans-2e" transform="translate(147.412109 0)"/>
       <use xlink:href="#DejaVuSans-30" transform="translate(179.199219 0)"/>
       <use xlink:href="#DejaVuSans-30" transform="translate(242.822266 0)"/>
       <use xlink:href="#DejaVuSans-32" transform="translate(306.445312 0)"/>
      </g>
     </g>
    </g>
    <g id="ytick_16">
     <g id="line2d_36">
      <g>
       <use xlink:href="#mbef438dcb1" x="637.090563" y="222.480546" style="stroke: #000000; stroke-width: 0.8"/>
      </g>
     </g>
     <g id="text_26">
      <!-- −0.001 -->
      <g transform="translate(593.08275 226.279765) scale(0.1 -0.1)">
       <use xlink:href="#DejaVuSans-2212"/>
       <use xlink:href="#DejaVuSans-30" transform="translate(83.789062 0)"/>
       <use xlink:href="#DejaVuSans-2e" transform="translate(147.412109 0)"/>
       <use xlink:href="#DejaVuSans-30" transform="translate(179.199219 0)"/>
       <use xlink:href="#DejaVuSans-30" transform="translate(242.822266 0)"/>
       <use xlink:href="#DejaVuSans-31" transform="translate(306.445312 0)"/>
      </g>
     </g>
    </g>
    <g id="ytick_17">
     <g id="line2d_37">
      <g>
       <use xlink:href="#mbef438dcb1" x="637.090563" y="166.468" style="stroke: #000000; stroke-width: 0.8"/>
      </g>
     </g>
     <g id="text_27">
      <!-- 0.000 -->
      <g transform="translate(601.462438 170.267219) scale(0.1 -0.1)">
       <use xlink:href="#DejaVuSans-30"/>
       <use xlink:href="#DejaVuSans-2e" transform="translate(63.623047 0)"/>
       <use xlink:href="#DejaVuSans-30" transform="translate(95.410156 0)"/>
       <use xlink:href="#DejaVuSans-30" transform="translate(159.033203 0)"/>
       <use xlink:href="#DejaVuSans-30" transform="translate(222.65625 0)"/>
      </g>
     </g>
    </g>
    <g id="ytick_18">
     <g id="line2d_38">
      <g>
       <use xlink:href="#mbef438dcb1" x="637.090563" y="110.455454" style="stroke: #000000; stroke-width: 0.8"/>
      </g>
     </g>
     <g id="text_28">
      <!-- 0.001 -->
      <g transform="translate(601.462438 114.254672) scale(0.1 -0.1)">
       <use xlink:href="#DejaVuSans-30"/>
       <use xlink:href="#DejaVuSans-2e" transform="translate(63.623047 0)"/>
       <use xlink:href="#DejaVuSans-30" transform="translate(95.410156 0)"/>
       <use xlink:href="#DejaVuSans-30" transform="translate(159.033203 0)"/>
       <use xlink:href="#DejaVuSans-31" transform="translate(222.65625 0)"/>
      </g>
     </g>
    </g>
    <g id="ytick_19">
     <g id="line2d_39">
      <g>
       <use xlink:href="#mbef438dcb1" x="637.090563" y="54.442907" style="stroke: #000000; stroke-width: 0.8"/>
      </g>
     </g>
     <g id="text_29">
      <!-- 0.002 -->
      <g transform="translate(601.462438 58.242126) scale(0.1 -0.1)">
       <use xlink:href="#DejaVuSans-30"/>
       <use xlink:href="#DejaVuSans-2e" transform="translate(63.623047 0)"/>
       <use xlink:href="#DejaVuSans-30" transform="translate(95.410156 0)"/>
       <use xlink:href="#DejaVuSans-30" transform="translate(159.033203 0)"/>
       <use xlink:href="#DejaVuSans-32" transform="translate(222.65625 0)"/>
      </g>
     </g>
    </g>
    <g id="text_30">
     <!-- Mass error (Da) -->
     <g transform="translate(587.003063 205.151594) rotate(-90) scale(0.1 -0.1)">
      <use xlink:href="#DejaVuSans-4d"/>
      <use xlink:href="#DejaVuSans-61" transform="translate(86.279297 0)"/>
      <use xlink:href="#DejaVuSans-73" transform="translate(147.558594 0)"/>
      <use xlink:href="#DejaVuSans-73" transform="translate(199.658203 0)"/>
      <use xlink:href="#DejaVuSans-20" transform="translate(251.757812 0)"/>
      <use xlink:href="#DejaVuSans-65" transform="translate(283.544922 0)"/>
      <use xlink:href="#DejaVuSans-72" transform="translate(345.068359 0)"/>
      <use xlink:href="#DejaVuSans-72" transform="translate(384.431641 0)"/>
      <use xlink:href="#DejaVuSans-6f" transform="translate(423.294922 0)"/>
      <use xlink:href="#DejaVuSans-72" transform="translate(484.476562 0)"/>
      <use xlink:href="#DejaVuSans-20" transform="translate(525.589844 0)"/>
      <use xlink:href="#DejaVuSans-28" transform="translate(557.376953 0)"/>
      <use xlink:href="#DejaVuSans-44" transform="translate(596.390625 0)"/>
      <use xlink:href="#DejaVuSans-61" transform="translate(673.392578 0)"/>
      <use xlink:href="#DejaVuSans-29" transform="translate(734.671875 0)"/>
     </g>
    </g>
   </g>
   <g id="LineCollection_9">
    <path d="M 652.467475 242.866764 
L 671.688616 242.866764 
" clip-path="url(#p923d210d94)" style="fill: none; stroke: #1f77b4; stroke-width: 1.5"/>
    <path d="M 729.352039 161.424228 
L 748.57318 161.424228 
" clip-path="url(#p923d210d94)" style="fill: none; stroke: #1f77b4; stroke-width: 1.5"/>
   </g>
   <g id="LineCollection_10">
    <path d="M 652.467475 215.78604 
L 671.688616 215.78604 
" clip-path="url(#p923d210d94)" style="fill: none; stroke: #1f77b4; stroke-width: 1.5"/>
    <path d="M 729.352039 126.798972 
L 748.57318 126.798972 
" clip-path="url(#p923d210d94)" style="fill: none; stroke: #1f77b4; stroke-width: 1.5"/>
   </g>
   <g id="LineCollection_11">
    <path d="M 652.467475 268.678234 
L 671.688616 268.678234 
" clip-path="url(#p923d210d94)" style="fill: none; stroke: #1f77b4; stroke-width: 1.5"/>
    <path d="M 729.352039 203.716854 
L 748.57318 203.716854 
" clip-path="url(#p923d210d94)" style="fill: none; stroke: #1f77b4; stroke-width: 1.5"/>
   </g>
   <g id="LineCollection_12">
    <path d="M 662.078046 268.678234 
L 662.078046 215.78604 
" clip-path="url(#p923d210d94)" style="fill: none; stroke: #1f77b4; stroke-width: 1.5"/>
    <path d="M 738.96261 203.716854 
L 738.96261 126.798972 
" clip-path="url(#p923d210d94)" style="fill: none; stroke: #1f77b4; stroke-width: 1.5"/>
   </g>
   <g id="line2d_40">
    <path d="M 637.090563 166.468 
L 763.950093 166.468 
" clip-path="url(#p923d210d94)" style="fill: none; stroke: #1f77b4; stroke-width: 1.5; stroke-linecap: square"/>
   </g>
   <g id="line2d_41">
    <path d="M 637.090563 226.291429 
L 763.950093 226.291429 
" clip-path="url(#p923d210d94)" style="fill: none; stroke-dasharray: 3.7,1.6; stroke-dashoffset: 0; stroke: #808080"/>
   </g>
   <g id="line2d_42">
    <path d="M 637.090563 206.350286 
L 763.950093 206.350286 
" clip-path="url(#p923d210d94)" style="fill: none; stroke-dasharray: 3.7,1.6; stroke-dashoffset: 0; stroke: #808080"/>
   </g>
   <g id="line2d_43">
    <path d="M 637.090563 186.409143 
L 763.950093 186.409143 
" clip-path="url(#p923d210d94)" style="fill: none; stroke-dasharray: 3.7,1.6; stroke-dashoffset: 0; stroke: #808080"/>
   </g>
   <g id="line2d_44">
    <path d="M 637.090563 146.526857 
L 763.950093 146.526857 
" clip-path="url(#p923d210d94)" style="fill: none; stroke-dasharray: 3.7,1.6; stroke-dashoffset: 0; stroke: #808080"/>
   </g>
   <g id="line2d_45">
    <path d="M 637.090563 126.585714 
L 763.950093 126.585714 
" clip-path="url(#p923d210d94)" style="fill: none; stroke-dasharray: 3.7,1.6; stroke-dashoffset: 0; stroke: #808080"/>
   </g>
   <g id="line2d_46">
    <path d="M 637.090563 106.644571 
L 763.950093 106.644571 
" clip-path="url(#p923d210d94)" style="fill: none; stroke-dasharray: 3.7,1.6; stroke-dashoffset: 0; stroke: #808080"/>
   </g>
   <g id="patch_13">
    <path d="M 637.090563 306.056 
L 637.090563 26.88 
" style="fill: none; stroke: #000000; stroke-width: 0.8; stroke-linejoin: miter; stroke-linecap: square"/>
   </g>
   <g id="patch_14">
    <path d="M 763.950093 306.056 
L 763.950093 26.88 
" style="fill: none; stroke: #000000; stroke-width: 0.8; stroke-linejoin: miter; stroke-linecap: square"/>
   </g>
   <g id="patch_15">
    <path d="M 637.090563 306.056 
L 763.950093 306.056 
" style="fill: none; stroke: #000000; stroke-width: 0.8; stroke-linejoin: miter; stroke-linecap: square"/>
   </g>
   <g id="patch_16">
    <path d="M 637.090563 26.88 
L 763.950093 26.88 
" style="fill: none; stroke: #000000; stroke-width: 0.8; stroke-linejoin: miter; stroke-linecap: square"/>
   </g>
   <g id="text_31">
    <!-- Thiamphenicol -->
    <g transform="translate(656.455015 20.88) scale(0.12 -0.12)">
     <defs>
      <path id="DejaVuSans-54" d="M -19 4666 
L 3928 4666 
L 3928 4134 
L 2272 4134 
L 2272 0 
L 1638 0 
L 1638 4134 
L -19 4134 
L -19 4666 
z
" transform="scale(0.015625)"/>
      <path id="DejaVuSans-70" d="M 1159 525 
L 1159 -1331 
L 581 -1331 
L 581 3500 
L 1159 3500 
L 1159 2969 
Q 1341 3281 1617 3432 
Q 1894 3584 2278 3584 
Q 2916 3584 3314 3078 
Q 3713 2572 3713 1747 
Q 3713 922 3314 415 
Q 2916 -91 2278 -91 
Q 1894 -91 1617 61 
Q 1341 213 1159 525 
z
M 3116 1747 
Q 3116 2381 2855 2742 
Q 2594 3103 2138 3103 
Q 1681 3103 1420 2742 
Q 1159 2381 1159 1747 
Q 1159 1113 1420 752 
Q 1681 391 2138 391 
Q 2594 391 2855 752 
Q 3116 1113 3116 1747 
z
" transform="scale(0.015625)"/>
     </defs>
     <use xlink:href="#DejaVuSans-54"/>
     <use xlink:href="#DejaVuSans-68" transform="translate(61.083984 0)"/>
     <use xlink:href="#DejaVuSans-69" transform="translate(124.462891 0)"/>
     <use xlink:href="#DejaVuSans-61" transform="translate(152.246094 0)"/>
     <use xlink:href="#DejaVuSans-6d" transform="translate(213.525391 0)"/>
     <use xlink:href="#DejaVuSans-70" transform="translate(310.9375 0)"/>
     <use xlink:href="#DejaVuSans-68" transform="translate(374.414062 0)"/>
     <use xlink:href="#DejaVuSans-65" transform="translate(437.792969 0)"/>
     <use xlink:href="#DejaVuSans-6e" transform="translate(499.316406 0)"/>
     <use xlink:href="#DejaVuSans-69" transform="translate(562.695312 0)"/>
     <use xlink:href="#DejaVuSans-63" transform="translate(590.478516 0)"/>
     <use xlink:href="#DejaVuSans-6f" transform="translate(645.458984 0)"/>
     <use xlink:href="#DejaVuSans-6c" transform="translate(706.640625 0)"/>
    </g>
   </g>
  </g>
 </g>
 <defs>
  <clipPath id="p55bbcadb53">
   <rect x="118.549375" y="26.88" width="126.859531" height="279.176"/>
  </clipPath>
  <clipPath id="p79f09a254a">
   <rect x="377.819969" y="26.88" width="126.859531" height="279.176"/>
  </clipPath>
  <clipPath id="p923d210d94">
   <rect x="637.090563" y="26.88" width="126.859531" height="279.176"/>
  </clipPath>
 </defs>
</svg>
